P3
50 50
255
0
0
0
0
0
0
0
0
0
0
0
0
0
0
0
0
0
0
0
0
0
0
0
0
0
0
0
0
0
0
0
0
0
0
0
0
0
0
0
0
0
0
0
0
0
0
0
0
0
0
0
0
0
0
0
0
0
0
0
0
0
0
0
0
0
0
0
0
0
1
1
1
0
0
0
0
0
0
31
28
15
15
13
5
0
0
0
3
2
1
22
19
11
0
0
0
0
0
0
3
3
2
1
1
1
0
0
0
0
0
0
12
11
7
3
3
2
0
0
0
4
4
2
4
3
2
0
0
0
0
0
0
0
0
0
0
0
0
0
0
0
0
0
0
0
0
0
0
0
0
0
0
0
0
0
0
0
0
0
0
0
0
0
0
0
0
0
0
0
0
0
0
0
0
0
0
0
0
0
0
0
0
0
0
0
0
0
0
0
0
0
0
0
0
0
0
0
0
0
0
0
0
0
0
0
0
0
0
0
0
0
0
0
0
0
0
0
0
0
0
0
0
0
0
0
0
0
0
0
0
0
0
0
0
0
0
0
0
0
0
0
0
0
0
0
0
0
0
0
0
0
0
0
0
0
0
0
0
0
0
0
0
0
0
0
0
0
0
0
0
0
0
0
0
0
0
0
0
0
0
0
0
0
0
0
0
0
0
0
0
0
0
0
0
0
0
0
0
0
0
0
0
0
0
0
0
0
0
0
0
0
0
0
0
0
0
0
0
0
0
0
0
0
0
0
0
0
0
0
0
0
0
0
0
0
0
0
0
0
0
0
0
0
0
0
0
0
0
0
0
0
0
0
0
0
0
0
0
0
0
0
0
0
0
0
0
0
0
0
0
0
0
0
0
0
0
0
0
0
0
0
0
0
0
0
0
0
0
0
0
0
0
0
0
0
0
0
0
0
0
0
0
0
0
0
0
0
0
0
0
0
0
0
0
0
0
0
0
0
0
0
0
0
0
0
0
0
0
0
0
0
0
0
0
0
0
0
0
0
0
0
0
0
0
0
0
0
0
0
0
0
0
0
0
0
0
0
0
0
0
0
0
0
0
0
0
0
0
0
0
0
0
0
0
0
0
0
0
0
0
0
0
0
0
0
0
0
0
0
0
0
0
0
0
0
0
0
0
0
0
0
0
0
0
0
0
0
0
0
0
0
0
0
0
0
0
0
0
0
0
0
0
0
0
0
0
0
0
0
0
0
0
0
0
0
0
0
0
0
0
61
52
37
31
25
15
0
0
0
0
0
0
0
0
0
5
3
3
99
89
84
54
46
38
0
0
0
0
0
0
0
0
0
0
0
0
0
0
0
0
0
0
0
0
0
0
0
0
0
0
0
0
0
0
0
0
0
0
0
0
0
0
0
0
0
0
0
0
0
0
0
0
0
0
0
0
0
0
0
0
0
0
0
0
0
0
0
0
0
0
0
0
0
0
0
0
0
0
0
0
0
0
0
0
0
0
0
0
0
0
0
0
0
0
0
0
0
0
0
0
0
0
0
0
0
0
0
0
0
0
0
0
0
0
0
0
0
0
0
0
0
0
0
0
0
0
0
23
17
8
51
34
16
5
3
1
0
0
0
0
0
0
93
82
77
155
137
124
77
67
59
1
0
0
0
0
0
0
0
0
0
0
0
0
0
0
0
0
0
0
0
0
0
0
0
0
0
0
0
0
0
0
0
0
0
0
0
0
0
0
0
0
0
0
0
0
0
0
0
0
0
0
0
0
0
0
0
0
0
0
0
0
0
0
0
0
0
0
0
0
0
0
0
0
0
0
0
0
0
0
0
0
0
0
0
0
0
0
0
0
0
0
0
0
0
0
0
0
0
0
0
0
0
0
0
0
0
0
0
0
0
0
1
1
0
13
12
5
0
0
0
1
0
0
43
37
26
77
50
18
44
24
3
0
0
0
0
0
0
88
78
73
186
167
159
98
81
61
2
1
0
0
0
0
0
0
0
0
0
0
0
0
0
0
0
0
0
0
0
0
0
0
0
0
0
0
0
0
0
0
0
0
0
0
0
0
0
0
0
0
0
0
0
0
0
0
0
0
0
0
0
0
0
0
0
0
0
0
0
0
0
0
0
0
0
0
0
0
0
0
0
0
0
0
0
0
0
0
0
0
0
0
0
0
0
0
0
0
0
0
0
0
0
0
0
0
0
0
0
0
0
0
0
0
0
0
0
0
0
0
0
0
5
5
2
9
8
3
59
51
41
107
87
59
94
60
24
82
55
14
18
17
4
9
9
3
17
12
7
190
167
152
148
128
107
9
5
2
0
0
0
0
0
0
0
0
0
0
0
0
0
0
0
0
0
0
0
0
0
0
0
0
0
0
0
0
0
0
0
0
0
0
0
0
0
0
0
0
0
0
0
0
0
0
0
0
0
0
0
0
0
0
0
0
0
0
0
0
0
0
0
0
0
0
0
0
0
0
0
0
0
0
0
0
0
0
0
0
0
0
0
0
0
0
0
0
0
0
0
0
0
0
0
0
0
0
0
0
0
0
0
0
0
0
0
0
0
0
0
0
0
0
0
0
0
15
11
5
133
107
72
125
91
33
64
40
5
21
20
5
16
15
6
9
9
2
108
93
82
171
143
116
110
92
69
0
0
0
0
0
0
0
0
0
0
0
0
0
0
0
0
0
0
0
0
0
0
0
0
0
0
0
0
0
0
0
0
0
0
0
0
0
0
0
0
0
0
0
0
0
0
0
0
0
0
0
0
0
0
0
0
0
0
0
0
0
0
0
0
0
0
0
0
0
0
0
0
0
0
0
0
0
0
0
0
0
0
0
0
0
0
0
0
0
0
0
0
0
0
0
0
0
0
0
0
0
0
0
0
0
0
0
0
0
0
0
0
0
0
0
0
0
0
0
0
61
45
17
90
54
12
84
59
19
0
0
0
7
7
2
9
9
4
19
14
7
158
130
102
154
122
88
36
26
8
0
0
0
0
0
0
0
0
0
0
0
0
0
0
0
0
0
0
0
0
0
0
0
0
0
0
0
0
0
0
0
0
0
0
0
0
0
0
0
0
0
0
0
0
0
0
0
0
0
0
0
0
0
0
0
0
0
0
0
0
0
0
0
0
0
0
0
0
0
0
0
0
0
0
0
0
0
0
0
0
0
0
0
0
0
0
0
0
0
0
0
0
0
0
0
0
0
0
0
0
0
0
0
0
0
0
0
0
0
0
0
0
0
0
0
0
0
0
0
0
80
58
27
86
51
9
65
44
7
0
0
0
12
8
5
70
61
56
123
103
78
132
102
65
82
59
19
0
0
0
0
0
0
0
0
0
0
0
0
0
0
0
0
0
0
0
0
0
0
0
0
0
0
0
0
0
0
0
0
0
0
0
0
0
0
0
0
0
0
0
0
0
0
0
0
0
0
0
0
0
0
0
0
0
0
0
0
0
0
0
0
0
0
0
0
0
0
0
0
0
0
0
0
0
0
0
0
0
0
0
0
0
0
0
0
0
0
0
0
0
0
0
0
0
0
0
0
0
0
0
0
0
0
0
0
0
0
0
0
0
0
0
0
0
0
0
0
53
42
33
135
108
76
151
117
71
131
111
97
192
173
167
215
195
188
201
176
155
133
99
52
88
58
12
3
2
0
0
0
0
0
0
0
0
0
0
0
0
0
0
0
0
0
0
0
0
0
0
0
0
0
0
0
0
0
0
0
0
0
0
0
0
0
0
0
0
0
0
0
0
0
0
0
0
0
0
0
0
0
0
0
0
0
0
0
0
0
0
0
0
0
0
0
0
0
0
0
0
0
0
0
0
0
0
0
0
0
0
0
0
0
0
0
0
0
0
0
0
0
0
0
0
0
0
0
0
0
0
0
0
0
0
0
0
0
0
0
0
0
0
0
104
92
85
181
160
150
200
176
162
204
174
150
205
171
143
238
216
207
202
178
161
147
120
92
135
100
52
91
66
19
2
2
0
0
0
0
0
0
0
0
0
0
0
0
0
0
0
0
0
0
0
0
0
0
0
0
0
0
0
0
0
0
0
0
0
0
0
0
0
0
0
0
0
0
0
0
0
0
0
0
0
0
0
0
0
0
0
0
0
0
0
0
0
0
0
0
0
0
0
0
0
0
0
0
0
0
0
0
0
0
0
0
0
0
0
0
0
0
0
0
1
1
0
0
0
0
0
0
0
0
0
0
0
0
0
0
0
0
0
0
0
0
0
0
0
0
0
143
121
101
218
186
159
210
176
142
189
153
112
185
146
103
228
203
190
213
185
160
125
97
52
62
40
6
26
21
5
3
3
0
0
0
0
0
0
0
0
0
0
0
0
0
0
0
0
0
0
0
0
0
0
0
0
0
0
0
0
0
0
0
0
0
0
0
0
0
0
0
0
0
0
0
0
0
0
0
0
0
0
0
0
0
0
0
0
0
0
0
0
0
0
0
0
0
0
0
0
0
0
0
0
0
0
0
0
0
0
0
0
0
0
0
0
0
0
0
0
0
0
0
0
0
0
0
0
0
1
1
0
0
0
0
0
0
0
0
0
0
0
0
0
0
0
0
51
39
23
187
151
106
173
128
53
158
113
35
128
97
38
209
178
152
231
202
181
156
127
94
5
4
1
0
0
0
0
0
0
0
0
0
0
0
0
0
0
0
0
0
0
0
0
0
0
0
0
0
0
0
0
0
0
0
0
0
0
0
0
0
0
0
0
0
0
0
0
0
0
0
0
0
0
0
0
0
0
0
0
0
0
0
0
0
0
0
0
0
0
0
0
0
0
0
0
0
0
0
0
0
0
0
0
0
0
0
0
0
0
0
0
0
0
0
0
0
0
0
0
0
0
0
0
0
0
1
1
1
0
0
0
0
0
0
1
1
0
0
0
0
0
0
0
8
6
1
73
59
34
159
114
40
159
110
26
99
75
25
119
97
73
222
189
161
208
175
142
96
79
57
4
4
1
0
0
0
0
0
0
0
0
0
0
0
0
0
0
0
0
0
0
0
0
0
0
0
0
0
0
0
0
0
0
0
0
0
0
0
0
0
0
0
0
0
0
0
0
0
0
0
0
0
0
0
0
0
0
0
0
0
0
0
0
0
0
0
0
0
0
0
0
0
0
0
0
0
0
0
0
0
0
0
0
0
0
0
0
0
0
0
0
0
0
0
0
0
0
0
0
0
0
0
0
0
0
1
1
0
2
2
0
0
0
0
7
6
2
0
0
0
0
0
0
0
0
0
132
108
73
128
90
35
112
71
12
83
68
23
185
156
126
214
182
151
165
130
92
25
20
12
0
0
0
0
0
0
0
0
0
0
0
0
0
0
0
0
0
0
0
0
0
0
0
0
0
0
0
0
0
0
0
0
0
0
0
0
0
0
0
0
0
0
0
0
0
0
0
0
0
0
0
0
0
0
0
0
0
0
0
0
0
0
0
0
0
0
0
0
0
0
0
0
0
0
0
0
0
0
0
0
0
0
0
0
0
0
0
0
0
0
0
0
0
0
0
0
0
0
0
0
0
0
0
0
0
24
25
2
9
9
0
1
1
1
15
12
3
0
0
0
14
10
3
100
87
75
208
178
150
159
124
90
136
95
40
171
148
121
216
182
147
182
144
95
117
87
44
0
0
0
0
0
0
0
0
0
0
0
0
0
0
0
0
0
0
0
0
0
0
0
0
0
0
0
0
0
0
0
0
0
0
0
0
0
0
0
0
0
0
0
0
0
0
0
0
0
0
0
0
0
0
0
0
0
0
0
0
0
0
0
0
0
0
0
0
0
0
0
0
0
0
0
0
0
0
0
0
0
0
0
0
0
0
0
0
0
0
0
0
0
0
0
0
0
0
0
0
0
0
0
0
0
4
3
0
3
3
1
0
0
0
0
0
0
11
8
2
150
129
109
199
173
153
231
204
184
220
187
153
185
144
92
217
182
153
223
188
153
182
144
96
122
79
13
45
32
5
1
1
0
0
0
0
1
1
0
0
0
0
0
0
0
0
0
0
0
0
0
0
0
0
0
0
0
0
0
0
0
0
0
0
0
0
0
0
0
0
0
0
0
0
0
0
0
0
0
0
0
0
0
0
0
0
0
0
0
0
0
0
0
0
0
0
0
0
0
0
0
0
0
0
0
0
0
0
0
0
0
0
0
0
0
0
0
0
0
0
0
0
0
0
0
0
0
0
0
0
0
0
0
0
0
163
150
136
209
195
182
167
155
142
62
54
40
88
72
51
197
161
119
193
154
103
193
150
89
175
126
47
184
142
92
199
163
122
142
101
50
106
67
8
48
34
5
0
0
0
0
0
0
0
0
0
5
5
1
0
0
0
0
0
0
0
0
0
0
0
0
0
0
0
0
0
0
0
0
0
0
0
0
0
0
0
0
0
0
0
0
0
0
0
0
0
0
0
0
0
0
0
0
0
0
0
0
0
0
0
0
0
0
0
0
0
0
0
0
0
0
0
0
0
0
0
0
0
0
0
0
0
0
0
0
0
0
0
0
0
0
0
0
0
0
0
0
0
0
0
0
0
0
0
0
38
34
25
187
175
163
250
232
217
248
231
218
239
219
203
231
204
180
202
167
134
193
153
113
197
162
125
181
142
100
138
107
69
58
47
13
15
14
3
0
0
0
18
18
9
0
0
0
0
0
0
0
0
0
0
0
0
0
0
0
0
0
0
0
0
0
0
0
0
0
0
0
0
0
0
0
0
0
0
0
0
0
0
0
0
0
0
0
0
0
0
0
0
0
0
0
0
0
0
0
0
0
0
0
0
0
0
0
0
0
0
0
0
0
0
0
0
0
0
0
0
0
0
0
0
0
0
0
0
0
0
0
0
0
0
0
0
0
0
0
0
0
0
0
0
0
0
0
0
0
0
0
0
2
1
1
136
127
116
234
216
203
250
229
215
252
232
218
253
233
219
249
227
209
199
164
126
164
133
96
176
153
130
175
155
133
21
18
8
0
0
0
0
0
0
0
0
0
0
0
0
0
0
0
0
0
0
0
0
0
0
0
0
0
0
0
0
0
0
0
0
0
0
0
0
0
0
0
0
0
0
0
0
0
0
0
0
0
0
0
0
0
0
0
0
0
0
0
0
0
0
0
0
0
0
0
0
0
0
0
0
0
0
0
0
0
0
0
0
0
0
0
0
0
0
0
0
0
0
0
0
0
0
0
0
0
0
0
0
0
0
0
0
0
0
0
0
0
0
0
0
0
0
0
0
0
55
48
42
225
202
186
249
226
211
234
209
188
236
210
188
244
222
206
232
199
169
247
217
189
196
162
126
197
166
131
184
163
137
15
11
2
0
0
0
0
0
0
0
0
0
0
0
0
0
0
0
0
0
0
0
0
0
0
0
0
0
0
0
0
0
0
0
0
0
0
0
0
0
0
0
0
0
0
0
0
0
0
0
0
0
0
0
0
0
0
0
0
0
0
0
0
0
0
0
0
0
0
0
0
0
0
0
0
0
0
0
0
0
0
0
0
0
0
0
0
0
0
0
0
0
0
0
0
0
0
0
0
0
0
0
0
0
0
0
0
0
0
0
0
0
0
0
24
16
2
205
180
158
228
201
173
211
182
152
172
136
88
97
68
35
192
152
104
205
169
132
231
193
151
246
211
175
202
162
118
171
133
74
110
86
42
0
0
0
0
0
0
0
0
0
0
0
0
0
0
0
0
0
0
0
0
0
0
0
0
0
0
0
0
0
0
0
0
0
0
0
0
0
0
0
0
0
0
0
0
0
0
0
0
0
0
0
0
0
0
0
0
0
0
0
0
0
0
0
0
0
0
0
0
0
0
0
0
0
0
0
0
0
0
0
0
0
0
0
0
0
0
0
0
0
0
0
0
0
0
0
0
13
13
4
0
0
0
12
13
1
6
7
0
1
1
0
85
67
49
192
169
145
67
51
24
128
98
64
209
176
139
120
73
13
166
119
57
211
173
131
241
212
185
255
232
209
253
222
189
232
191
144
192
149
93
75
59
36
0
0
0
0
0
0
0
0
0
0
0
0
0
0
0
0
0
0
0
0
0
0
0
0
0
0
0
0
0
0
0
0
0
0
0
0
0
0
0
0
0
0
0
0
0
0
0
0
0
0
0
0
0
0
0
0
0
0
0
0
0
0
0
0
0
0
0
0
0
0
0
0
0
0
0
0
0
0
0
0
0
0
0
0
0
0
0
0
0
0
0
0
0
18
20
1
24
24
2
7
7
1
0
0
0
52
35
13
115
86
56
191
160
129
146
110
64
202
170
141
229
200
174
160
112
43
155
108
36
217
178
137
252
232
212
254
228
204
252
215
176
252
213
169
243
198
149
207
172
131
31
23
11
2
2
1
2
3
1
0
0
0
0
0
0
0
0
0
0
0
0
0
0
0
0
0
0
0
0
0
0
0
0
0
0
0
0
0
0
0
0
0
0
0
0
0
0
0
0
0
0
0
0
0
0
0
0
0
0
0
0
0
0
0
0
0
0
0
0
0
0
0
0
0
0
0
0
0
0
0
0
0
0
0
0
0
0
0
0
0
0
0
0
12
14
0
14
13
0
8
5
1
82
54
15
111
71
19
76
46
12
188
164
144
207
175
144
226
198
175
222
194
168
147
100
35
171
125
77
239
203
170
247
216
185
232
193
155
240
199
158
250
210
167
243
199
148
244
199
149
190
156
115
23
18
5
0
0
0
0
0
0
0
0
0
0
0
0
0
0
0
0
0
0
0
0
0
0
0
0
0
0
0
0
0
0
0
0
0
0
0
0
0
0
0
0
0
0
0
0
0
0
0
0
0
0
0
0
0
0
0
0
0
0
0
0
0
0
0
0
0
0
0
0
0
0
0
0
0
0
0
0
0
0
0
0
0
0
0
0
0
0
0
0
0
0
103
77
39
131
91
32
146
97
28
116
72
16
60
39
12
86
60
28
206
171
135
225
193
164
208
164
111
202
151
87
205
155
99
224
178
131
186
139
80
191
141
84
218
168
124
242
199
154
248
207
163
248
205
159
245
200
149
179
146
103
0
0
0
0
0
0
0
0
0
0
0
0
0
0
0
0
0
0
0
0
0
0
0
0
0
0
0
0
0
0
0
0
0
0
0
0
0
0
0
0
0
0
0
0
0
0
0
0
0
0
0
0
0
0
0
0
0
0
0
0
0
0
0
0
0
0
0
0
0
0
0
0
0
0
0
0
0
0
0
0
0
0
0
0
11
8
1
170
152
137
215
180
146
158
109
34
140
94
29
112
72
28
118
88
47
100
68
24
172
131
72
198
153
95
202
151
80
232
187
138
220
172
121
214
166
114
174
127
67
176
128
70
196
148
99
230
183
138
250
209
167
252
213
174
246
200
150
239
188
130
135
106
69
0
0
0
1
1
0
0
0
0
0
0
0
0
0
0
0
0
0
0
0
0
1
1
0
1
0
0
13
6
0
50
23
0
66
33
1
63
30
1
54
25
0
66
38
2
35
18
0
15
9
0
2
2
0
2
2
0
0
0
0
0
0
0
0
0
0
0
0
0
0
0
0
0
0
0
0
0
0
0
0
0
60
50
31
205
176
154
198
157
113
180
131
67
155
113
59
154
118
74
87
56
21
109
68
19
122
82
30
128
85
24
175
126
62
202
151
87
203
155
95
184
136
73
140
91
25
151
104
41
166
115
43
207
153
88
244
199
153
254
219
185
253
213
172
245
196
140
230
173
103
186
141
78
69
51
21
0
0
0
2
2
0
0
0
0
2
1
0
22
11
0
110
69
3
139
83
5
156
90
11
167
102
24
174
111
37
178
116
43
178
116
45
168
105
34
155
92
29
158
100
40
142
92
41
145
99
53
148
103
55
0
0
0
0
0
0
0
0
0
0
0
0
0
0
0
0
0
0
0
0
0
80
68
55
221
195
174
221
183
145
237
200
162
234
203
178
173
134
89
132
80
10
139
88
10
136
86
10
119
68
8
123
71
8
146
92
10
142
91
17
123
72
10
89
44
5
123
71
14
159
107
34
206
153
93
236
188
140
250
211
175
249
208
165
247
198
145
243
190
129
226
164
79
207
149
66
148
102
25
99
60
3
100
56
2
113
55
1
155
88
5
180
112
24
195
132
65
206
147
89
212
154
102
217
159
106
219
163
112
216
160
110
204
148
99
206
152
106
207
153
108
201
146
93
198
140
79
203
143
77
0
0
0
0
0
0
0
0
0
0
0
0
0
0
0
0
0
0
0
0
0
10
8
3
146
118
77
158
121
67
150
123
92
231
203
176
234
201
166
216
174
127
182
133
72
152
96
28
128
73
3
97
46
2
106
55
2
86
42
3
108
61
12
108
61
8
107
54
6
148
97
22
178
126
55
196
140
70
233
186
137
240
195
153
244
198
153
241
192
137
223
159
79
194
127
31
157
88
5
139
73
4
132
66
4
158
94
19
200
136
59
220
161
101
235
184
135
232
180
131
229
172
119
221
162
101
219
162
110
211
152
94
209
152
95
204
145
82
208
148
83
209
151
93
211
151
92
215
154
90
0
0
0
3
3
1
0
0
0
0
0
0
0
0
0
0
0
0
0
0
0
0
0
0
94
78
48
153
130
98
180
154
122
183
158
128
153
136
114
168
150
130
168
149
128
177
153
124
166
134
92
136
102
61
52
30
2
46
25
2
116
69
12
168
123
66
126
74
15
137
87
19
138
87
18
167
113
35
197
138
63
223
170
119
235
190
151
224
169
115
218
159
91
185
122
47
191
123
32
151
84
7
171
110
29
206
141
58
224
164
97
230
171
108
226
171
118
226
170
115
217
159
96
211
152
87
209
150
84
195
135
67
205
143
71
213
152
85
218
161
104
209
150
89
213
154
93
226
167
108
0
0
0
0
0
0
0
0
0
0
0
0
0
0
0
0
0
0
0
0
0
0
0
0
3
2
0
2
1
1
2
2
0
2
1
0
0
0
0
0
0
0
1
1
0
0
0
0
1
1
0
0
0
0
1
0
0
0
0
0
71
37
4
149
103
48
137
90
26
115
63
7
123
71
9
151
100
26
198
146
91
204
148
84
204
149
92
215
164
121
210
156
105
198
136
67
187
122
36
173
112
29
202
140
64
226
166
95
225
164
94
232
177
121
222
167
111
209
151
86
207
149
85
203
143
73
203
145
79
218
163
107
218
164
108
233
186
144
225
175
125
219
168
119
226
174
125
232
182
135
0
0
0
0
0
0
0
0
0
0
0
0
0
0
0
0
0
0
0
0
0
0
0
0
0
0
0
0
0
0
0
0
0
0
0
0
0
0
0
0
0
0
0
0
0
0
0
0
0
0
0
0
0
0
0
0
0
0
0
0
17
6
0
83
42
3
119
69
9
115
61
5
130
78
14
145
93
22
168
116
49
197
145
86
196
142
87
211
162
120
194
144
97
203
147
91
186
127
60
178
116
33
224
166
105
236
183
123
229
173
113
226
174
123
216
163
108
206
151
93
226
177
129
220
169
119
222
172
124
233
189
148
213
161
109
217
166
114
213
161
107
200
142
75
220
162
102
219
163
104
0
0
0
0
0
0
0
0
0
0
0
0
0
0
0
0
0
0
0
0
0
0
0
0
0
0
0
0
0
0
0
0
0
0
0
0
0
0
0
0
0
0
0
0
0
0
0
0
0
0
0
0
0
0
0
0
0
0
0
0
0
0
0
35
17
0
80
39
2
94
46
3
111
57
5
134
81
13
152
102
29
174
123
54
186
136
79
197
148
101
181
132
80
187
137
86
176
117
41
195
136
60
219
165
109
226
173
116
212
157
94
193
137
74
220
169
117
205
152
96
196
142
78
197
142
76
206
152
90
208
153
89
204
149
83
197
140
72
203
146
76
193
132
48
214
154
79
214
153
83
0
0
0
0
0
0
0
0
0
0
0
0
0
0
0
0
0
0
0
0
0
0
0
0
0
0
0
0
0
0
0
0
0
0
0
0
0
0
0
0
0
0
0
0
0
0
0
0
0
0
0
0
0
0
0
0
0
0
0
0
2
2
0
9
5
0
61
34
1
63
30
1
68
32
1
100
48
2
135
81
11
148
98
25
171
123
60
183
134
81
190
143
97
172
122
61
179
120
42
211
157
95
215
159
101
207
150
85
179
123
47
186
130
60
215
163
108
189
135
70
165
109
30
168
112
32
195
137
58
197
139
63
191
134
57
184
125
41
183
123
38
182
123
39
206
145
65
213
156
86
0
0
0
0
0
0
0
0
0
0
0
0
0
0
0
0
0
0
0
0
0
0
0
0
0
0
0
0
0
0
0
0
0
0
0
0
0
0
0
0
0
0
0
0
0
0
0
0
0
0
0
26
17
2
4
2
0
0
0
0
0
0
0
6
5
1
31
18
0
67
40
1
52
25
1
60
28
1
109
56
3
120
68
10
155
108
40
158
108
41
189
144
101
156
105
33
174
120
52
213
159
100
201
142
71
200
144
80
188
133
61
187
132
57
173
117
37
160
106
27
153
97
15
159
101
22
177
120
32
185
127
42
179
121
33
168
109
22
159
101
16
155
97
17
184
125
42
197
137
54
0
0
0
0
0
0
0
0
0
0
0
0
0
0
0
0
0
0
0
0
0
0
0
0
0
0
0
0
0
0
0
0
0
0
0
0
0
0
0
0
0
0
0
0
0
0
0
0
0
0
0
0
0
0
0
0
0
0
0
0
0
0
0
14
8
0
3
2
0
30
19
0
49
25
0
52
24
0
63
28
1
81
40
3
130
79
16
142
92
34
179
133
80
161
110
35
172
121
55
214
162
104
189
131
53
197
142
72
179
122
41
187
129
47
170
114
31
129
71
6
132
74
6
136
77
11
160
102
15
174
117
30
161
103
15
164
105
14
136
76
7
153
97
16
161
103
17
183
125
38
0
0
0
0
0
0
0
0
0
0
0
0
0
0
0
0
0
0
0
0
0
0
0
0
0
0
0
7
4
0
0
0
0
0
0
0
0
0
0
0
0
0
0
0
0
0
0
0
0
0
0
1
1
0
0
0
0
0
0
0
0
0
0
19
10
0
0
0
0
0
0
0
6
3
0
42
19
0
47
22
1
64
29
2
92
44
4
126
77
24
161
113
48
174
119
41
173
118
40
187
132
62
174
115
36
185
129
55
191
134
62
207
147
67
179
120
41
133
75
7
124
66
6
117
57
3
137
79
8
149
91
11
143
83
8
144
84
6
127
65
4
152
94
13
187
125
32
202
138
43
0
0
0
0
0
0
0
0
0
0
0
0
0
0
0
0
0
0
0
0
0
0
0
0
0
0
0
0
0
0
0
0
0
0
0
0
0
0
0
0
0
0
0
0
0
0
0
0
0
0
0
0
0
0
0
0
0
0
0
0
0
0
0
0
0
0
0
0
0
0
0
0
1
1
0
11
4
0
66
33
2
144
103
59
95
53
15
119
72
20
184
138
91
244
215
191
217
173
130
172
116
41
173
116
34
182
125
48
209
151
80
220
164
103
232
193
162
189
143
104
115
59
7
93
40
3
101
46
3
119
59
4
143
82
7
149
88
8
153
91
8
172
111
20
195
131
35
214
150
59
0
0
0
0
0
0
0
0
0
0
0
0
0
0
0
0
0
0
0
0
0
0
0
0
0
0
0
0
0
0
0
0
0
0
0
0
0
0
0
0
0
0
0
0
0
0
0
0
0
0
0
0
0
0
0
0
0
0
0
0
0
0
0
0
0
0
0
0
0
0
0
0
0
0
0
0
0
0
21
12
1
183
158
135
214
181
152
189
143
93
242
216
199
255
247
240
247
222
199
188
134
65
162
108
30
196
137
63
223
166
101
238
196
161
255
244
236
249
230
220
191
150
119
131
77
29
136
77
16
149
94
37
165
109
42
165
105
26
173
113
38
181
122
41
208
149
75
226
172
111
0
0
0
0
0
0
0
0
0
0
0
0
0
0
0
0
0
0
0
0
0
0
0
0
0
0
0
0
0
0
0
0
0
0
0
0
0
0
0
0
0
0
0
0
0
0
0
0
0
0
0
0
0
0
0
0
0
0
0
0
0
0
0
0
0
0
0
0
0
0
0
0
1
1
0
1
1
0
0
0
0
9
7
3
150
134
118
241
213
190
251
230
218
253
237
228
255
241
230
204
156
103
183
130
64
222
169
107
237
184
122
244
202
165
255
248
240
254
240
231
243
217
201
234
201
174
230
196
168
234
204
186
227
193
167
231
197
173
223
185
155
231
194
166
239
202
176
250
224
207
0
0
0
0
0
0
0
0
0
0
0
0
0
0
0
0
0
0
0
0
0
0
0
0
0
0
0
0
0
0
0
0
0
0
0
0
0
0
0
0
0
0
0
0
0
0
0
0
0
0
0
0
0
0
0
0
0
0
0
0
0
0
0
0
0
0
0
0
0
0
0
0
0
0
0
2
1
0
1
1
0
0
0
0
5
3
0
123
107
83
234
211
190
246
224
211
254
239
231
236
198
163
209
160
106
216
163
102
234
180
121
248
210
178
255
249
241
254
241
233
245
220
205
242
214
196
244
216
198
239
212
193
244
219
204
249
226
214
249
225
213
249
224
211
254
233
222
255
238
227
0
0
0
0
0
0
0
0
0
0
0
0
0
0
0
0
0
0
0
0
0
0
0
0
0
0
0
0
0
0
0
0
0
0
0
0
0
0
0
0
0
0
0
0
0
0
0
0
0
0
0
0
0
0
0
0
0
0
0
0
0
0
0
0
0
0
0
0
0
0
0
0
0
0
0
0
0
0
0
0
0
0
0
0
0
0
0
0
0
0
92
82
55
218
199
181
253
235
225
239
212
190
181
135
75
204
151
86
224
170
110
248
213
184
255
250
243
255
248
241
245
221
209
243
218
202
244
217
197
239
210
187
241
213
192
244
216
195
247
222
207
250
227
214
253
232
221
254
234
224
0
0
0
0
0
0
0
0
0
0
0
0
0
0
0
0
0
0
0
0
0
0
0
0
0
0
0
0
0
0
0
0
0
0
0
0
0
0
0
0
0
0
0
0
0
0
0
0
0
0
0
0
0
0
0
0
0
0
0
0
0
0
0
0
0
0
0
0
0
0
0
0
1
1
0
0
0
0
1
0
0
0
0
0
0
0
0
0
0
0
0
0
0
81
72
56
232
210
194
250
234
222
143
104
60
170
122
52
194
139
68
250
220
196
255
249
241
255
252
245
248
229
220
244
219
203
245
219
201
244
218
199
244
215
191
243
214
188
244
216
196
248
224
209
249
224
208
247
222
206
0
0
0
0
0
0
0
0
0
0
0
0
0
0
0
0
0
0
0
0
0
0
0
0
0
0
0
0
0
0
0
0
0
0
0
0
0
0
0
0
0
0
0
0
0
0
0
0
0
0
0
0
0
0
0
0
0
0
0
0
0
0
0
0
0
0
0
0
0
0
0
0
1
1
0
0
0
0
1
1
0
0
0
0
0
0
0
0
0
0
0
0
0
0
0
0
159
144
127
247
234
224
165
136
110
127
83
29
195
141
79
253
232
214
255
252
245
255
254
248
254
248
240
243
217
199
244
217
197
247
221
203
246
218
197
244
214
189
243
214
189
242
214
189
245
217
194
244
217
193
0
0
0
0
0
0
0
0
0
0
0
0
0
0
0
0
0
0
0
0
0
0
0
0
0
0
0
0
0
0
0
0
0
0
0
0
0
0
0
0
0
0
0
0
0
0
0
0
0
0
0
0
0
0
0
0
0
0
0
0
0
0
0
0
0
0
0
0
0
0
0
0
0
0
0
0
0
0
0
0
0
0
0
0
0
0
0
0
0
0
0
0
0
0
0
0
0
0
0
190
175
164
184
146
102
171
124
62
220
168
109
253
239
227
255
251
244
255
252
244
255
253
245
245
221
202
241
214
195
244
219
197
248
220
198
247
218
194
244
214
186
242
213
184
243
214
188
243
215
188
0
0
0
0
0
0
0
0
0
0
0
0
0
0
0
0
0
0
0
0
0
0
0
0
0
0
0
0
0
0
0
0
0
0
0
0
0
0
0
0
0
0
0
0
0
0
0
0
0
0
0
0
0
0
0
0
0
0
0
0
0
0
0
0
0
0
0
0
0
0
0
0
0
0
0
0
0
0
0
0
0
0
0
0
0
0
0
0
0
0
0
0
0
0
0
0
2
1
0
175
159
144
156
122
81
168
121
57
220
173
127
255
244
234
255
249
241
254
239
226
253
235
219
244
216
191
244
217
193
246
219
197
246
217
193
246
218
191
246
217
190
243
215
185
241
212
184
244
214
184
0
0
0
0
0
0
0
0
0
0
0
0
0
0
0
0
0
0
0
0
0
0
0
0
0
0
0
0
0
0
0
0
0
0
0
0
0
0
0
0
0
0
0
0
0
0
0
0
0
0
0
0
0
0
0
0
0
0
0
0
0
0
0
0
0
0
0
0
0
0
0
0
0
0
0
0
0
0
0
0
0
0
0
0
0
0
0
0
0
0
0
0
0
0
0
0
4
3
0
167
149
123
113
72
30
155
107
45
200
149
96
254
242
232
255
243
234
242
221
199
234
202
162
238
206
169
239
208
177
239
208
178
238
206
173
238
206
172
225
197
159
191
169
134
216
190
155
242
213
182
36
23
2
45
34
10
33
20
2
19
10
0
26
16
0
41
34
5
54
38
3
17
9
0
6
3
0
5
3
0
0
0
0
0
0
0
0
0
0
0
0
0
0
0
0
0
0
0
0
0
0
0
0
0
0
0
0
6
4
0
12
8
0
0
0
0
5
3
0
0
0
0
0
0
0
32
21
0
48
32
3
46
31
4
41
24
2
40
21
1
65
40
5
36
22
2
44
35
5
148
125
93
123
78
27
173
121
50
241
213
194
253
236
225
237
214
189
119
104
74
55
45
20
163
139
104
229
193
149
228
191
145
224
186
137
220
181
128
144
121
75
3
3
0
30
22
5
125
108
78
