P3
70 37
255
127
127
127
127
127
127
127
127
127
127
127
127
127
127
127
127
127
127
127
127
127
127
127
127
127
127
127
127
127
127
127
127
127
127
127
127
127
127
127
127
127
127
127
127
127
127
127
127
127
127
127
127
127
127
127
127
127
127
127
127
127
127
127
127
127
127
127
127
127
127
127
127
127
127
127
127
127
127
127
127
127
127
127
127
127
127
127
127
127
127
127
127
127
127
127
127
127
127
127
127
127
127
127
127
127
127
127
127
127
127
127
127
127
127
127
127
127
127
127
127
127
127
127
127
127
127
127
127
127
127
127
127
127
127
127
127
127
127
127
127
127
127
127
127
127
127
127
127
127
127
127
127
127
127
127
127
127
127
127
127
127
127
127
127
127
127
127
127
127
127
127
127
127
127
127
127
127
127
127
127
127
127
127
127
127
127
127
127
127
127
127
127
127
127
127
127
127
127
127
127
127
127
127
127
127
127
127
127
127
127
127
127
127
127
127
127
127
127
127
127
127
127
127
127
127
127
127
127
127
127
127
127
127
127
127
127
127
127
127
127
127
127
127
127
127
127
127
127
127
127
127
127
127
127
127
127
127
127
122
122
128
99
99
134
85
84
136
85
84
135
85
84
135
85
84
135
85
84
135
86
84
135
86
84
134
87
84
135
86
84
135
86
84
135
86
84
134
85
84
135
85
84
135
85
84
135
85
84
135
85
84
135
85
84
137
85
84
139
85
84
141
85
84
141
84
84
140
84
84
139
84
84
139
84
84
138
84
84
137
84
84
137
84
84
137
84
84
137
84
84
137
84
84
137
85
84
136
85
84
136
85
84
136
85
84
135
104
104
133
124
124
129
127
127
127
127
127
127
127
127
127
127
127
127
127
127
127
127
127
127
127
127
127
127
127
127
127
127
127
127
127
127
127
127
127
127
127
127
127
127
127
127
127
127
127
127
127
127
127
127
127
127
127
127
127
127
127
127
127
127
127
127
127
127
127
127
127
127
127
127
127
127
127
127
127
127
127
127
127
127
127
127
127
127
127
127
127
127
127
127
127
127
111
111
133
72
72
139
7
6
147
3
0
148
8
0
143
15
2
137
15
6
129
8
6
132
14
9
122
28
16
101
34
16
104
36
17
98
35
13
116
58
4
129
93
5
126
96
6
125
40
7
126
16
14
144
4
26
211
1
78
228
3
107
230
14
57
177
7
38
201
1
36
222
2
43
220
5
32
209
5
11
209
2
2
205
2
2
194
5
6
169
7
8
151
7
7
148
2
1
171
0
0
176
0
0
171
1
0
163
1
1
158
2
0
155
2
0
149
21
21
149
82
82
145
117
117
133
127
127
127
127
127
127
127
127
127
127
127
127
127
127
127
127
127
127
127
127
127
127
127
127
127
127
127
127
127
127
127
127
127
127
127
127
127
127
127
127
127
127
127
127
127
127
127
127
127
127
127
127
127
127
127
127
127
127
127
127
127
127
127
127
127
127
127
127
127
127
127
127
127
127
127
127
127
127
114
114
156
64
64
179
2
1
200
1
1
194
1
1
191
2
2
196
8
9
155
13
13
135
13
15
119
16
16
106
16
16
108
17
16
126
8
9
171
3
26
240
11
32
202
62
1
141
127
0
131
97
2
133
33
33
140
6
98
235
8
177
249
48
239
233
83
253
202
77
246
207
55
226
216
49
231
228
29
229
242
6
192
247
12
80
193
5
59
236
8
27
219
14
22
180
5
15
220
3
6
220
6
7
193
5
7
202
5
5
206
9
9
188
12
15
157
6
7
175
3
3
177
2
2
181
1
0
196
2
2
197
75
76
182
119
119
146
127
127
127
127
127
127
127
127
127
127
127
127
127
127
127
127
127
127
127
127
127
127
127
127
127
127
127
127
127
127
127
127
127
127
127
127
127
127
127
127
127
127
127
127
127
127
127
127
127
127
127
127
127
127
127
127
127
127
127
127
127
127
127
127
127
127
125
125
126
88
125
178
9
92
231
3
100
250
6
81
229
6
78
229
9
75
222
11
41
201
9
21
210
10
12
189
13
13
164
13
13
154
13
13
174
15
24
175
14
19
177
4
85
237
16
105
190
23
13
173
56
90
157
46
170
192
30
189
201
61
236
217
120
254
164
148
255
129
170
254
104
67
192
169
22
193
191
32
208
198
49
226
202
27
211
207
6
198
234
7
137
230
10
98
214
8
88
224
1
95
252
1
56
237
1
10
239
1
6
246
1
1
239
2
11
233
4
2
172
4
1
173
6
1
211
2
5
235
3
5
228
6
8
204
3
29
233
25
63
219
98
118
161
127
127
127
127
127
127
127
127
127
127
127
127
127
127
127
127
127
127
127
127
127
127
127
127
127
127
127
127
127
127
127
127
127
127
127
127
127
127
127
127
127
127
127
127
127
127
127
127
127
127
127
127
127
127
127
127
127
127
127
127
118
139
139
58
185
199
12
192
221
19
176
219
8
171
234
4
174
244
2
148
253
3
173
249
9
144
224
3
104
247
2
57
250
6
59
230
7
54
222
9
60
204
11
65
205
9
108
221
31
230
241
16
165
210
57
164
180
148
252
139
167
254
108
169
235
109
187
247
100
198
251
75
205
249
64
104
205
153
81
226
176
97
213
144
76
213
162
71
218
168
56
254
218
42
253
233
16
235
249
10
228
251
2
208
254
1
197
254
1
189
254
2
126
253
2
102
254
1
92
254
1
92
253
1
78
247
2
48
233
5
33
200
3
27
217
2
47
250
7
108
228
8
108
228
13
151
213
19
216
234
75
194
201
124
136
136
127
127
127
127
127
127
127
127
127
127
127
127
127
127
127
127
127
127
127
127
127
127
127
127
127
127
127
127
127
127
127
127
127
127
127
127
127
127
127
127
127
127
127
127
127
127
127
127
127
127
127
125
166
133
91
221
163
104
209
144
160
227
99
187
254
94
117
178
95
35
230
226
41
249
235
33
250
239
17
246
249
2
205
254
5
165
240
5
138
237
5
131
238
4
138
240
8
141
234
15
199
223
77
254
198
111
254
167
150
254
124
190
255
84
228
255
44
243
254
27
250
252
17
167
186
47
238
253
36
159
187
74
160
209
73
152
198
72
133
225
112
127
244
136
119
254
154
106
255
168
79
254
196
75
254
199
44
243
221
32
254
241
39
254
235
28
244
242
4
233
253
2
190
253
3
120
248
2
97
252
2
112
253
3
92
253
7
155
229
16
229
232
38
241
224
21
196
218
80
241
187
98
254
175
99
254
176
104
239
171
126
150
129
127
127
127
127
127
127
127
127
127
127
127
127
127
127
127
127
127
127
127
127
127
127
127
127
127
127
127
127
127
127
127
127
127
127
127
127
127
127
127
127
127
127
127
127
127
140
176
119
160
238
100
179
254
93
194
254
78
211
255
61
234
254
38
168
188
50
96
249
175
81
254
200
99
254
177
64
254
210
47
227
202
20
248
247
15
223
235
8
220
236
4
210
250
15
199
234
52
200
183
115
254
160
182
255
95
224
254
54
244
250
26
253
239
5
254
229
1
231
212
13
186
186
29
209
211
22
209
219
34
202
218
39
186
221
56
181
231
73
159
230
92
169
253
104
157
242
108
122
238
145
105
220
138
112
247
162
90
237
168
88
239
172
51
239
223
7
183
239
9
181
228
11
180
216
3
185
248
6
167
230
8
204
240
5
182
237
25
210
208
67
249
200
80
239
188
106
234
149
132
253
137
139
251
131
140
247
126
147
237
114
134
156
123
127
127
127
127
127
127
127
127
127
127
127
127
127
127
127
127
127
127
127
127
127
127
127
127
127
127
127
127
127
127
127
127
127
127
127
127
127
127
127
151
170
116
195
252
80
205
254
69
217
254
58
232
254
42
245
253
25
253
249
9
216
217
26
189
240
91
160
250
111
175
250
100
145
250
128
124
232
134
85
193
142
92
244
181
94
248
188
84
190
140
120
199
105
138
205
97
173
254
103
240
227
39
254
192
1
255
190
1
254
188
1
254
191
1
254
197
1
225
182
11
246
234
10
186
203
64
167
187
57
190
206
49
193
216
50
212
219
30
221
226
30
223
228
29
217
236
49
183
234
78
201
254
85
155
243
126
141
239
146
128
214
140
63
224
223
25
209
244
45
244
231
53
236
218
43
216
201
96
250
195
78
237
192
63
227
199
108
216
135
111
245
154
133
253
136
159
255
113
159
255
113
165
254
106
173
254
99
178
245
94
139
150
122
127
127
127
127
127
127
127
127
127
127
127
127
127
127
127
127
127
127
127
127
127
127
127
127
127
127
127
127
127
127
127
127
127
151
144
119
244
231
38
251
237
11
253
232
6
254
224
2
254
214
1
254
207
1
248
216
4
216
241
55
195
248
84
148
254
139
230
254
43
232
253
44
219
244
52
193
205
40
185
211
57
189
221
69
218
210
40
242
203
30
247
204
20
250
182
12
254
111
1
254
120
1
254
132
1
254
141
1
254
150
1
232
157
9
230
194
11
223
161
18
216
135
27
203
143
21
187
174
27
203
170
18
231
187
15
209
187
49
200
190
47
212
168
16
213
174
15
230
181
9
201
194
57
152
217
143
190
226
153
216
237
92
179
236
109
177
240
102
154
236
111
115
251
166
189
246
88
129
236
141
172
224
98
203
215
53
198
232
67
219
250
64
231
247
48
228
249
50
235
245
41
244
243
28
245
242
25
232
223
57
134
131
125
127
127
127
127
127
127
127
127
127
127
127
127
127
127
127
127
127
127
127
127
127
127
127
127
127
127
127
127
127
127
230
138
61
254
148
1
254
145
0
254
142
1
254
139
1
254
142
1
254
160
1
238
186
6
242
203
31
232
239
48
202
247
114
254
197
2
254
182
1
254
187
1
253
209
2
212
138
15
251
100
1
254
46
1
254
23
1
254
34
1
254
46
1
254
59
1
254
71
1
245
83
5
254
94
1
254
106
1
223
98
11
229
129
11
225
84
9
224
84
12
217
67
14
207
90
17
212
131
14
231
203
15
215
180
43
198
179
41
214
138
12
237
133
6
226
112
8
158
180
122
152
201
156
224
208
103
161
202
196
110
230
203
130
238
193
216
254
66
224
245
59
226
177
11
206
177
28
234
176
12
229
158
13
235
169
12
254
131
1
254
129
1
254
136
1
254
136
1
254
140
1
254
143
0
254
144
1
209
132
84
127
127
126
127
127
127
127
127
127
127
127
127
127
127
127
127
127
127
127
127
127
127
127
127
127
127
127
185
107
101
254
65
1
254
65
1
254
65
1
254
69
1
254
80
1
254
98
1
254
127
1
250
154
3
221
81
10
235
169
16
251
150
3
253
88
1
253
85
2
253
103
2
218
84
8
216
8
3
245
1
1
245
2
1
248
4
1
250
7
1
252
11
1
254
17
1
255
25
1
254
37
1
254
52
1
251
68
3
236
85
8
221
99
11
247
71
2
210
49
12
238
37
6
238
42
6
230
38
9
212
26
13
218
60
13
203
76
8
243
141
4
251
75
3
229
152
29
195
183
73
174
156
114
55
175
224
3
197
252
3
202
253
25
231
243
187
234
142
252
183
4
249
133
3
232
129
8
219
68
13
200
89
16
243
27
5
254
18
1
254
27
1
254
37
1
254
39
1
254
45
1
254
50
1
254
56
1
253
60
6
157
117
116
127
127
127
127
127
127
127
127
127
127
127
127
127
127
127
127
127
127
127
127
127
127
127
127
225
47
47
240
4
1
245
4
1
251
8
1
254
22
0
254
42
1
254
64
1
254
87
1
254
99
1
203
58
13
237
97
5
227
43
9
212
15
7
184
10
7
190
9
8
166
6
7
196
1
1
198
0
1
201
0
1
205
0
1
214
0
1
224
0
1
234
0
1
247
2
1
254
11
1
251
28
2
224
45
10
199
42
11
182
2
2
194
1
2
207
3
4
242
10
2
227
3
2
236
7
3
210
21
10
228
17
5
179
6
6
167
50
12
217
84
6
193
23
9
196
54
6
142
4
5
170
85
43
120
173
169
117
198
175
159
176
124
230
197
80
253
131
2
253
85
2
227
81
11
225
15
2
208
3
3
224
0
1
222
0
0
218
0
1
217
0
0
220
0
1
223
1
1
229
1
1
232
2
1
236
3
1
204
77
77
127
127
127
127
127
127
127
127
127
127
127
127
127
127
127
127
127
127
127
127
127
141
114
113
195
1
1
199
2
3
213
0
1
228
0
0
245
1
1
253
12
1
254
30
1
254
41
1
254
39
1
225
18
6
205
68
6
235
57
3
162
2
3
154
2
2
132
9
9
129
10
11
153
1
1
158
0
1
165
0
1
175
0
1
185
0
1
197
0
1
210
0
1
225
0
0
243
0
1
252
26
2
176
21
8
126
2
4
109
5
5
157
2
2
187
6
6
184
5
7
195
3
3
201
4
5
158
6
7
138
7
9
158
1
1
116
5
6
108
8
10
139
5
7
134
7
7
126
5
6
146
1
1
154
1
2
129
14
16
196
33
9
223
96
11
226
49
9
222
39
7
184
32
12
171
1
1
173
0
1
168
0
1
163
0
1
157
0
1
157
0
1
161
0
1
164
1
1
169
0
1
175
0
0
180
0
0
185
18
17
129
124
124
127
127
127
127
127
127
127
127
127
127
127
127
127
127
127
127
127
127
144
93
93
168
1
1
168
5
6
192
0
1
204
0
1
215
1
1
224
0
0
228
0
1
224
1
1
209
0
1
180
0
0
164
8
4
221
73
5
155
13
6
122
7
10
132
1
1
114
9
9
124
12
11
138
3
3
146
1
1
158
1
1
170
0
0
181
0
0
195
0
1
211
0
1
226
2
1
245
12
2
95
5
6
80
4
4
89
1
1
93
5
6
126
2
3
139
8
4
149
6
5
139
4
5
110
1
1
116
5
6
152
7
6
107
4
4
112
8
8
154
2
2
141
0
1
131
4
5
119
1
1
129
4
5
130
1
2
143
7
10
164
8
10
138
12
14
156
3
5
145
2
2
138
2
2
136
0
0
133
0
1
131
0
1
131
0
1
131
0
1
134
0
1
137
0
1
141
0
0
146
0
0
151
0
1
158
1
1
137
109
109
127
127
127
127
127
127
127
127
127
127
127
127
127
127
127
127
127
127
144
70
70
158
0
1
164
0
1
170
1
0
175
0
1
178
0
0
177
0
0
172
0
1
163
0
1
150
0
1
138
0
1
126
0
1
123
3
2
137
28
8
146
12
14
127
4
5
137
0
1
135
2
2
138
1
1
130
5
5
146
0
1
157
0
1
170
0
0
181
0
1
187
0
1
188
3
2
193
4
5
82
11
13
93
5
6
80
6
6
79
6
8
101
4
4
91
5
6
104
3
4
138
2
3
101
0
1
159
16
9
141
18
11
136
5
6
148
3
4
148
0
1
135
0
0
124
2
3
130
4
4
122
2
3
125
0
1
118
4
6
105
11
14
129
11
14
132
3
5
123
3
3
99
14
17
124
0
1
124
0
2
123
0
2
122
1
2
126
0
1
128
0
1
131
0
1
134
0
1
136
0
1
141
0
0
145
0
1
138
92
92
127
127
127
127
127
127
127
127
127
127
127
127
127
127
127
127
127
127
133
49
48
136
0
0
140
0
0
142
0
0
144
0
1
145
1
1
145
0
0
142
0
1
139
0
0
135
0
0
132
0
1
130
0
1
131
0
1
134
0
1
128
4
5
121
14
14
124
16
12
131
23
12
124
7
7
123
7
7
135
0
1
141
0
0
148
0
0
153
0
1
156
0
0
160
0
1
154
0
1
132
8
10
128
11
11
103
6
7
106
8
7
135
1
2
116
8
11
122
5
6
119
4
4
101
4
4
233
64
4
159
8
8
137
7
9
148
1
1
134
0
1
125
0
1
122
1
1
118
7
9
118
3
4
123
0
2
122
1
3
106
7
8
115
8
10
128
1
2
115
4
6
101
14
17
119
3
5
122
0
2
121
0
1
120
0
2
119
0
1
119
0
1
121
0
1
124
0
1
126
0
1
129
0
1
131
0
1
131
78
77
127
127
127
127
127
127
127
127
127
127
127
127
127
127
127
127
127
127
129
17
18
131
0
1
134
0
1
137
0
1
139
0
1
142
0
0
144
0
0
145
0
0
147
0
0
149
0
0
150
0
1
148
0
1
145
0
0
142
0
1
137
0
0
144
1
1
191
59
5
127
40
6
182
12
7
123
10
12
120
8
10
136
0
1
138
0
0
138
0
0
138
0
0
137
0
0
134
0
1
131
1
2
129
5
7
125
6
8
124
4
7
146
8
10
169
6
7
147
5
6
150
4
6
127
7
9
184
37
9
122
6
6
129
5
5
136
0
0
125
0
1
119
0
1
114
4
5
124
1
1
124
2
3
123
0
2
115
4
5
114
10
11
122
3
4
120
3
4
116
10
12
115
4
5
115
4
5
116
0
0
115
0
0
113
0
1
112
0
0
111
0
0
113
0
0
116
0
0
117
0
1
121
0
1
123
0
1
124
63
62
127
127
127
127
127
127
127
127
127
127
127
127
127
127
127
127
127
127
135
7
8
140
1
1
147
0
1
155
0
1
162
1
1
170
0
1
177
0
1
184
0
1
193
0
1
200
0
1
207
1
1
210
0
0
211
0
1
204
4
5
206
1
1
184
56
8
164
56
9
127
7
7
128
3
4
118
4
6
118
10
11
118
9
10
138
1
1
140
0
0
144
0
1
151
1
1
160
0
0
166
0
1
165
0
1
154
0
0
150
1
1
135
7
11
145
9
10
154
2
2
178
3
1
168
24
17
185
47
4
119
8
7
144
0
1
131
0
1
123
0
1
121
0
1
118
2
3
123
0
2
123
0
2
122
0
2
116
0
1
108
9
11
105
9
10
119
7
9
129
7
9
106
14
15
102
11
12
112
7
8
108
4
4
109
1
1
111
0
0
110
0
0
111
0
0
116
0
1
120
0
1
123
0
1
127
0
1
131
59
60
128
127
127
127
127
127
127
127
127
127
127
127
127
127
127
127
127
127
123
15
16
127
0
1
131
0
1
137
0
1
142
0
1
148
0
0
156
0
1
166
0
1
175
0
1
184
0
1
194
0
1
203
0
0
211
0
1
216
0
1
230
1
0
217
55
12
149
29
5
127
5
6
130
0
1
125
0
0
137
1
1
127
1
2
121
3
5
130
4
5
144
0
0
152
0
1
162
1
0
172
0
0
177
0
1
179
0
1
177
0
1
164
4
6
156
9
11
162
1
1
176
10
2
191
15
14
194
12
9
140
1
1
138
0
0
131
2
1
129
0
1
126
0
1
126
0
1
125
0
1
124
0
1
124
0
1
121
0
1
119
2
3
111
8
9
110
6
9
113
5
6
114
11
12
117
6
6
117
11
14
159
31
8
153
13
6
98
11
11
106
4
4
110
0
0
110
0
0
111
0
0
113
0
0
116
0
1
121
63
63
127
127
127
127
127
127
127
127
127
127
127
127
127
127
127
127
127
127
118
46
46
119
0
1
123
0
1
127
0
1
132
0
1
138
0
0
146
0
1
155
0
1
165
0
0
177
0
1
189
0
0
201
0
0
212
0
1
222
0
1
236
0
1
247
29
3
193
122
17
140
4
6
129
2
4
139
0
1
152
1
1
139
0
1
148
1
1
148
6
6
145
0
0
157
0
1
171
1
0
184
0
1
196
0
0
206
0
0
210
0
1
196
0
1
207
14
7
204
7
6
192
7
6
209
17
12
171
10
8
141
2
2
147
1
1
142
0
0
140
0
0
138
0
0
138
0
0
137
0
1
135
0
1
133
0
1
132
0
1
131
0
1
130
2
3
126
4
6
116
8
11
105
13
13
114
6
7
125
5
6
121
5
9
141
9
9
116
8
8
114
4
6
105
7
8
114
1
1
113
0
0
113
0
0
114
0
0
121
76
76
127
127
127
127
127
127
127
127
127
127
127
127
127
127
127
127
127
127
124
69
69
126
0
1
127
0
1
130
0
1
133
0
1
138
0
0
147
0
1
158
1
1
171
0
1
186
0
1
202
0
1
219
0
1
235
0
0
249
3
1
253
15
1
254
31
1
225
139
35
187
165
64
142
4
4
140
4
4
164
1
1
172
1
1
195
2
2
145
3
4
161
0
0
180
0
1
198
0
1
217
0
1
236
0
1
247
3
1
251
13
1
243
21
2
238
23
3
227
8
5
224
9
6
169
15
15
179
5
7
131
4
4
150
10
10
154
0
1
156
0
1
158
0
1
158
0
1
157
0
1
157
0
0
155
1
1
154
0
1
151
0
1
146
0
1
138
0
1
130
0
1
119
4
5
109
8
8
107
10
11
125
4
6
138
4
6
142
0
1
134
0
0
131
0
1
123
3
5
127
0
1
127
0
1
123
1
2
126
91
91
127
127
127
127
127
127
127
127
127
127
127
127
127
127
127
127
127
127
140
92
92
153
1
0
153
0
0
150
1
1
152
0
0
154
0
1
160
0
1
169
0
0
180
0
0
194
0
1
211
0
0
229
0
1
248
1
1
254
14
1
254
34
1
254
53
1
254
61
1
211
122
40
225
175
28
136
5
6
174
1
2
207
1
1
218
8
4
169
1
2
176
0
1
193
0
1
213
0
0
233
0
1
252
2
1
254
18
1
254
38
1
248
74
2
227
56
6
203
8
9
204
12
10
215
22
6
149
4
5
164
3
5
195
28
6
169
2
3
180
1
1
185
0
1
188
0
1
192
0
1
196
0
1
200
0
1
201
0
0
199
0
0
189
0
1
167
0
1
134
5
4
124
4
6
139
0
1
142
0
1
140
3
3
181
3
5
169
0
1
169
0
0
160
3
3
158
3
4
156
2
2
156
3
4
153
2
2
133
108
108
127
127
127
127
127
127
127
127
127
127
127
127
127
127
127
127
127
127
149
112
112
211
1
1
209
0
0
208
0
0
205
0
0
201
0
1
199
0
1
200
0
0
205
0
1
214
0
1
225
0
1
239
1
1
252
3
1
254
19
1
254
41
1
254
64
1
255
85
1
238
110
6
199
171
51
173
5
8
202
14
6
234
37
5
214
17
5
201
0
1
205
0
1
212
0
1
224
0
1
240
0
1
253
5
1
254
27
1
255
49
1
254
81
1
240
92
7
230
14
7
226
23
6
198
29
8
178
2
2
193
11
6
190
7
4
199
1
1
209
0
1
217
0
1
226
0
0
233
0
1
240
1
1
245
3
1
248
6
1
247
6
1
239
2
1
189
6
6
180
1
1
182
1
1
223
3
1
209
1
1
189
1
1
226
8
4
196
4
5
216
0
1
210
2
3
212
1
1
213
0
0
212
1
1
208
15
14
130
124
124
127
127
127
127
127
127
127
127
127
127
127
127
127
127
127
127
127
127
127
127
127
239
52
43
253
26
1
253
25
1
252
23
1
251
21
1
248
16
1
247
13
1
247
11
1
249
11
1
251
14
1
253
18
1
254
26
1
254
37
1
254
53
0
254
74
1
254
101
1
243
137
6
226
152
52
237
17
3
217
28
13
238
61
6
243
6
1
247
12
1
248
12
0
249
12
1
251
15
1
254
21
1
254
30
1
254
45
1
254
62
1
254
85
1
234
107
10
234
43
7
239
106
10
209
54
8
225
0
1
230
1
1
239
4
1
243
7
1
248
14
1
252
19
1
253
26
1
254
33
1
254
41
1
254
48
1
254
54
1
254
53
1
254
39
1
230
18
7
245
21
1
249
24
1
253
35
1
240
12
1
237
4
1
252
62
3
235
16
3
251
10
1
253
19
1
253
22
0
253
20
1
253
23
1
218
77
73
127
127
127
127
127
127
127
127
127
127
127
127
127
127
127
127
127
127
127
127
127
127
127
127
190
111
99
254
89
1
254
92
1
255
91
1
254
89
1
254
87
1
254
85
1
254
82
1
254
80
1
254
79
1
254
80
1
254
83
1
254
87
1
254
93
1
254
104
0
254
121
1
238
145
7
233
146
54
254
81
2
212
70
13
239
60
7
254
60
1
254
70
1
255
74
1
255
77
1
254
78
1
254
79
1
254
83
1
254
90
1
255
95
1
255
102
1
251
113
3
234
99
7
236
90
7
249
26
2
254
38
1
254
52
1
254
62
1
255
73
1
254
78
1
254
84
1
254
93
1
254
101
1
254
109
1
254
117
1
254
120
1
254
116
1
254
93
1
230
79
8
234
87
8
242
98
5
227
89
9
240
80
6
254
85
1
236
92
6
254
38
1
254
60
1
249
76
4
253
72
2
254
79
1
253
84
3
161
118
114
127
127
127
127
127
127
127
127
127
127
127
127
127
127
127
127
127
127
127
127
127
127
127
127
128
127
127
234
141
58
254
154
1
254
158
1
255
160
1
254
161
1
254
159
1
254
159
1
254
160
1
254
158
1
254
158
1
254
162
1
254
164
1
254
163
1
254
163
1
254
167
1
240
173
5
235
182
17
248
124
4
238
170
8
254
122
1
254
121
1
254
130
1
254
140
0
254
151
1
254
162
1
254
168
1
254
177
1
254
183
1
254
183
1
254
167
1
254
120
1
254
83
1
254
89
1
254
91
1
254
100
1
254
106
1
254
118
1
254
129
1
255
143
1
254
152
1
255
163
1
254
173
1
254
182
1
254
190
1
254
191
1
254
182
1
254
164
1
254
156
2
254
166
1
254
169
1
247
158
4
227
142
10
234
151
8
253
103
1
254
119
1
254
130
1
231
135
11
231
117
11
254
135
1
213
134
80
127
127
126
127
127
127
127
127
127
127
127
127
127
127
127
127
127
127
127
127
127
127
127
127
127
127
127
127
127
127
154
139
117
249
208
26
254
221
1
254
224
1
254
229
1
254
232
1
254
232
2
254
234
3
254
235
3
254
235
3
254
236
3
253
239
4
253
240
6
254
238
5
254
235
3
254
227
2
191
205
41
230
186
11
250
241
14
254
200
2
254
212
1
254
230
6
251
231
12
250
231
15
251
237
12
244
244
27
243
247
30
238
252
37
236
253
40
232
250
45
245
227
25
249
213
15
250
219
14
244
225
27
237
231
42
227
235
60
233
231
51
253
200
4
253
207
4
253
220
4
253
231
6
252
238
8
250
245
14
250
246
14
253
247
7
253
247
7
254
244
6
254
242
4
254
240
3
254
236
1
254
224
1
228
191
13
247
182
4
254
193
1
248
188
6
220
178
24
228
186
11
252
183
3
239
183
52
136
130
124
127
127
127
127
127
127
127
127
127
127
127
127
127
127
127
127
127
127
127
127
127
127
127
127
127
127
127
127
127
127
127
127
127
175
173
107
250
252
19
248
255
21
243
254
28
236
254
36
231
255
41
226
255
46
222
255
51
218
255
56
220
255
55
219
255
54
216
255
58
214
255
59
219
255
56
232
254
42
169
196
59
225
234
33
223
254
50
224
249
57
237
251
40
221
255
61
193
255
87
169
255
108
166
255
114
155
254
122
148
255
125
142
255
132
144
255
132
138
255
137
144
255
133
148
254
131
155
255
124
153
255
124
142
254
132
131
255
141
132
255
141
168
255
116
151
247
125
160
253
121
170
255
111
190
255
89
188
255
88
175
255
104
182
255
100
198
255
84
208
255
71
222
255
54
230
255
44
233
255
42
240
254
33
244
250
26
246
252
23
250
250
16
221
231
31
230
250
40
246
253
24
246
238
34
153
150
117
127
127
127
127
127
127
127
127
127
127
127
127
127
127
127
127
127
127
127
127
127
127
127
127
127
127
127
127
127
127
127
127
127
127
127
127
127
127
127
166
184
108
199
252
75
195
255
79
187
255
87
181
255
92
179
255
93
176
254
96
174
255
98
171
255
100
174
255
98
171
255
101
170
255
101
170
255
101
176
255
96
164
228
84
140
179
62
184
243
78
157
242
103
152
255
119
129
255
144
112
246
155
98
255
177
95
255
179
95
255
180
88
255
186
82
255
193
82
255
193
80
255
195
81
255
195
80
255
195
86
254
187
92
255
181
91
255
182
91
255
180
95
255
177
98
255
175
93
253
178
89
253
183
90
255
183
105
255
168
110
255
163
111
255
162
113
255
160
119
255
152
134
255
137
155
255
118
161
255
112
164
255
110
175
254
99
184
255
90
189
255
84
197
252
76
188
255
84
189
255
82
203
248
73
153
162
115
127
127
127
127
127
127
127
127
127
127
127
127
127
127
127
127
127
127
127
127
127
127
127
127
127
127
127
127
127
127
127
127
127
127
127
127
127
127
127
127
127
127
127
127
127
133
175
126
126
249
146
116
255
158
103
255
174
101
255
178
104
254
175
112
255
165
120
254
155
122
255
152
127
255
145
127
255
144
131
255
141
132
255
139
138
255
133
133
247
129
129
242
132
118
254
159
89
255
190
63
254
216
41
251
233
29
248
242
23
245
246
25
247
245
22
244
247
14
240
250
12
237
251
11
237
252
10
242
252
19
248
248
27
253
243
35
254
237
37
255
236
39
255
236
40
254
233
41
254
233
38
253
236
30
251
241
32
253
240
40
255
233
46
255
229
49
255
224
59
255
213
71
255
201
82
255
190
93
255
180
96
255
177
94
255
181
101
255
175
109
255
165
128
255
145
137
255
136
139
255
135
138
242
134
132
156
125
127
127
127
127
127
127
127
127
127
127
127
127
127
127
127
127
127
127
127
127
127
127
127
127
127
127
127
127
127
127
127
127
127
127
127
127
127
127
127
127
127
127
127
127
127
127
127
127
127
127
127
120
156
142
62
232
223
22
234
247
10
228
251
16
231
249
25
239
245
36
247
238
48
253
229
56
254
222
59
255
218
67
255
211
65
255
214
71
255
208
66
255
214
55
254
224
32
234
231
12
189
228
2
166
252
1
148
254
1
138
254
1
135
254
1
138
254
1
136
254
1
133
254
1
137
254
1
139
254
1
144
254
1
159
254
1
174
254
1
179
254
1
184
254
2
175
254
1
161
254
1
153
254
1
147
254
1
149
254
1
163
254
1
176
254
1
187
253
3
201
254
8
216
252
13
227
250
18
225
248
20
221
246
19
213
248
17
210
249
18
216
248
28
230
244
44
241
232
50
244
229
82
223
202
124
140
133
127
127
127
127
127
127
127
127
127
127
127
127
127
127
127
127
127
127
127
127
127
127
127
127
127
127
127
127
127
127
127
127
127
127
127
127
127
127
127
127
127
127
127
127
127
127
127
127
127
127
127
127
127
127
127
127
127
124
128
135
81
106
209
1
68
237
1
72
245
1
94
250
1
117
253
1
135
253
1
146
254
1
162
254
1
170
254
1
176
254
2
172
249
1
152
254
3
155
246
9
91
210
4
48
224
1
23
245
0
13
232
1
28
241
1
26
238
1
34
242
1
34
250
1
34
251
3
41
236
3
36
238
3
30
238
3
29
241
3
39
233
4
53
224
29
42
197
78
15
173
58
7
166
5
5
191
21
17
214
63
25
180
84
24
168
95
16
152
78
12
151
63
27
173
67
37
174
92
37
171
90
13
154
44
10
172
24
8
193
9
11
208
1
34
222
1
53
222
17
76
227
94
119
195
126
127
128
127
127
127
127
127
127
127
127
127
127
127
127
127
127
127
127
127
127
127
127
127
127
127
127
127
127
127
127
127
127
127
127
127
127
127
127
127
127
127
127
127
127
127
127
127
127
127
127
127
127
127
127
127
127
127
127
127
127
127
127
127
127
127
127
127
127
111
111
132
62
57
143
16
0
152
3
0
172
3
3
200
5
4
204
18
4
195
16
2
194
8
9
185
10
8
171
27
3
169
27
22
188
18
7
157
26
2
140
17
4
158
24
1
154
32
0
144
6
1
166
4
2
194
50
3
160
104
3
142
131
16
144
157
53
149
171
85
161
172
92
165
182
107
171
192
121
178
198
108
174
193
60
153
143
3
132
131
18
138
174
60
151
202
102
171
215
139
191
219
151
197
217
149
194
218
153
197
214
131
188
206
99
174
193
66
156
159
21
132
93
4
130
34
4
130
40
0
139
75
68
136
118
118
130
127
127
127
127
127
127
127
127
127
127
127
127
127
127
127
127
127
127
127
127
127
127
127
127
127
127
127
127
127
127
127
127
127
127
127
127
127
127
127
127
127
127
127
127
127
127
127
127
127
127
127
127
127
127
127
127
127
127
127
127
127
127
127
127
127
127
127
127
127
127
127
127
127
127
127
127
127
127
112
107
127
87
66
125
59
3
136
56
0
137
68
0
137
73
1
136
64
0
138
81
0
135
119
0
132
123
0
132
84
1
136
51
0
138
64
1
137
83
3
130
64
3
131
35
3
137
61
1
140
149
9
133
202
89
169
215
128
189
220
145
198
230
175
214
237
200
226
241
211
232
240
209
231
232
182
218
223
158
203
223
163
204
231
184
217
237
201
227
241
212
233
244
219
236
243
215
235
236
196
224
224
156
204
206
112
178
175
74
156
119
20
138
42
2
134
43
11
134
95
76
127
119
113
129
127
127
127
127
127
127
127
127
127
127
127
127
127
127
127
127
127
127
127
127
127
127
127
127
127
127
127
127
127
127
127
127
127
127
127
127
127
127
127
127
127
127
127
127
127
127
127
127
127
127
127
127
127
127
127
127
127
127
127
127
127
127
127
127
127
127
127
127
127
127
127
127
127
127
127
127
127
127
127
127
127
127
127
127
127
127
127
127
127
127
121
118
129
129
99
136
142
97
144
143
96
143
146
96
142
155
97
142
165
98
143
170
98
144
167
98
143
157
97
142
151
96
143
149
96
143
153
98
143
160
100
144
172
106
150
183
118
161
191
136
174
194
148
181
196
154
183
197
156
184
199
160
187
201
167
190
202
173
194
204
176
196
203
176
195
203
172
194
201
167
191
199
164
188
200
164
189
202
168
192
202
168
191
198
159
186
190
139
174
180
118
159
166
107
149
154
101
146
125
101
132
123
122
128
127
127
127
127
127
127
127
127
127
127
127
127
127
127
127
127
127
127
127
127
127
127
127
127
127
127
127
127
127
127
127
127
127
127
127
127
127
127
127
127
127
127
127
127
127
127
127
127
127
127
127
127
127
127
127
127
127
127
127
127
127
127
127
127
127
127
127
127
127
127
127
127
127
127
127
127
127
127
127
127
127
127
127
127
127
127
127
127
127
127
127
127
127
127
127
127
127
127
127
127
127
127
127
127
127
127
127
127
127
127
127
127
127
127
127
127
127
127
127
127
127
127
127
127
127
127
127
127
127
127
127
127
127
127
127
127
127
127
127
127
127
127
127
127
127
127
127
127
127
127
127
127
127
127
127
127
127
127
127
127
127
127
127
127
127
127
127
127
127
127
127
127
127
127
127
127
127
127
127
127
127
127
127
127
127
127
127
127
127
127
127
127
127
127
127
127
127
127
127
127
127
127
127
127
127
127
127
127
127
127
127
127
127
127
127
127
127
127
127
127
127
127
127
127
127
127
127
127
127
127
127
127
127
127
127
127
127
127
127
127
127
127
127
127
127
127
127
127
127
127
127
127
127
127
127
127
127
127
