P3
50 50
255
0
0
0
0
0
0
0
0
0
0
0
0
0
0
0
0
0
0
0
0
0
0
0
0
0
0
0
0
0
0
0
0
0
0
0
0
0
0
0
0
0
0
0
0
0
0
0
0
0
0
0
0
0
0
0
0
0
0
0
0
0
0
0
0
0
0
0
0
0
0
0
0
0
0
0
0
0
0
0
0
0
0
0
0
0
0
0
0
0
0
0
0
0
0
0
0
0
0
0
0
0
0
0
0
0
0
0
0
0
0
0
0
0
0
0
0
0
0
0
0
0
0
0
0
0
0
0
0
0
0
0
0
0
0
0
0
0
0
0
0
0
0
0
0
0
0
0
0
0
0
0
0
0
0
0
0
0
0
0
0
0
0
0
0
0
0
0
0
0
0
0
0
0
0
0
0
0
0
0
0
0
0
0
0
0
0
0
0
0
0
0
0
0
0
0
0
0
0
0
0
0
0
0
0
0
0
0
0
0
0
0
0
0
0
0
0
1
1
1
1
1
1
1
1
1
1
1
1
2
2
2
1
1
1
1
1
1
1
1
1
1
1
1
0
0
0
0
0
0
0
0
0
0
0
0
0
0
0
0
0
0
0
0
0
0
0
0
0
0
0
0
0
0
0
0
0
0
0
0
0
0
0
0
0
0
0
0
0
0
0
0
0
0
0
0
0
0
0
0
0
0
0
0
0
0
0
0
0
0
0
0
0
0
0
0
0
0
0
0
0
0
0
0
0
0
0
0
0
0
0
0
0
0
0
0
0
0
0
0
0
0
0
0
0
0
0
0
0
1
1
1
1
1
1
0
0
0
0
0
0
0
0
0
1
1
1
1
1
1
1
1
1
2
2
2
9
9
9
8
8
8
3
3
3
1
1
1
1
1
1
1
1
1
1
1
1
1
1
1
1
1
1
0
0
0
0
0
0
0
0
0
0
0
0
0
0
0
0
0
0
0
0
0
0
0
0
0
0
0
0
0
0
0
0
0
0
0
0
0
0
0
0
0
0
0
0
0
0
0
0
0
0
0
0
0
0
0
0
0
0
0
0
0
0
0
0
0
0
0
0
0
0
0
0
0
0
0
0
0
0
0
0
0
0
0
0
0
0
0
0
0
0
1
1
1
0
0
0
0
0
0
1
1
1
1
1
1
1
1
1
1
1
1
1
1
1
1
1
1
1
1
1
6
6
6
26
26
26
28
28
28
9
9
9
1
1
1
1
1
1
1
1
1
1
1
1
1
1
1
1
1
1
1
1
1
1
1
1
0
0
0
0
0
0
0
0
0
0
0
0
0
0
0
0
0
0
0
0
0
0
0
0
0
0
0
0
0
0
0
0
0
0
0
0
0
0
0
0
0
0
0
0
0
0
0
0
0
0
0
0
0
0
0
0
0
0
0
0
0
0
0
0
0
0
0
0
0
0
0
0
0
0
0
0
0
0
0
0
0
1
1
1
1
1
1
0
0
0
1
1
1
1
1
1
1
1
1
1
1
1
1
1
1
1
1
1
1
1
1
2
2
2
7
7
7
22
22
22
18
18
18
7
7
7
2
2
2
2
2
2
1
1
1
1
1
1
1
1
1
1
1
1
1
1
1
1
1
1
1
1
1
0
0
0
0
0
0
0
0
0
0
0
0
0
0
0
0
0
0
0
0
0
0
0
0
0
0
0
0
0
0
0
0
0
0
0
0
0
0
0
0
0
0
0
0
0
0
0
0
0
0
0
0
0
0
0
0
0
0
0
0
0
0
0
0
0
0
0
0
0
0
0
0
0
0
0
1
1
1
0
0
0
0
0
0
1
1
1
1
1
1
1
1
1
1
1
1
2
2
2
1
1
1
1
1
1
2
2
2
5
5
5
8
8
8
15
15
15
34
34
34
37
37
37
4
4
4
2
2
2
1
1
1
1
1
1
1
1
1
2
2
2
1
1
1
1
1
1
2
2
2
1
1
1
0
0
0
0
0
0
0
0
0
0
0
0
0
0
0
0
0
0
0
0
0
0
0
0
0
0
0
0
0
0
0
0
0
0
0
0
0
0
0
0
0
0
0
0
0
0
0
0
0
0
0
0
0
0
0
0
0
0
0
0
0
0
0
0
0
0
0
0
0
1
1
1
1
1
1
1
1
1
0
0
0
1
1
1
1
1
1
4
4
4
12
12
12
6
6
6
1
1
1
2
2
2
12
12
12
20
20
20
12
12
12
21
21
21
33
33
33
24
24
24
7
7
7
1
1
1
3
3
3
3
3
3
1
1
1
1
1
1
1
1
1
1
1
1
2
2
2
1
1
1
0
0
0
0
0
0
0
0
0
0
0
0
0
0
0
0
0
0
0
0
0
0
0
0
0
0
0
0
0
0
0
0
0
0
0
0
0
0
0
0
0
0
0
0
0
0
0
0
0
0
0
0
0
0
0
0
0
0
0
0
0
0
0
0
0
0
0
0
0
1
1
1
1
1
1
1
1
1
1
1
1
1
1
1
3
3
3
16
16
16
16
16
16
2
2
2
1
1
1
5
5
5
67
67
67
45
45
45
11
11
11
21
21
21
15
15
15
14
14
14
4
4
4
2
2
2
10
10
10
24
24
24
11
11
11
2
2
2
1
1
1
1
1
1
1
1
1
0
0
0
1
1
1
0
0
0
0
0
0
0
0
0
0
0
0
0
0
0
0
0
0
0
0
0
0
0
0
0
0
0
0
0
0
0
0
0
0
0
0
0
0
0
0
0
0
0
0
0
0
0
0
0
0
0
0
0
0
0
0
0
0
0
0
0
0
0
1
1
1
1
1
1
0
0
0
1
1
1
1
1
1
3
3
3
5
5
5
6
6
6
3
3
3
1
1
1
1
1
1
3
3
3
42
42
42
33
33
33
5
5
5
14
14
14
3
3
3
2
2
2
1
1
1
1
1
1
3
3
3
9
9
9
15
15
15
8
8
8
2
2
2
1
1
1
1
1
1
0
0
0
1
1
1
0
0
0
0
0
0
0
0
0
0
0
0
0
0
0
0
0
0
0
0
0
0
0
0
0
0
0
0
0
0
0
0
0
0
0
0
0
0
0
0
0
0
0
0
0
0
0
0
0
0
0
0
0
0
0
0
0
0
0
0
1
1
1
1
1
1
0
0
0
1
1
1
2
2
2
2
2
2
1
1
1
1
1
1
1
1
1
1
1
1
1
1
1
3
3
3
6
6
6
3
3
3
10
10
10
11
11
11
3
3
3
1
1
1
1
1
1
2
2
2
1
1
1
1
1
1
4
4
4
9
9
9
11
11
11
3
3
3
2
2
2
1
1
1
1
1
1
0
0
0
1
1
1
0
0
0
0
0
0
0
0
0
0
0
0
0
0
0
0
0
0
0
0
0
0
0
0
0
0
0
0
0
0
0
0
0
0
0
0
0
0
0
0
0
0
0
0
0
0
0
0
0
0
0
0
0
0
0
0
0
1
1
1
1
1
1
1
1
1
2
2
2
4
4
4
2
2
2
1
1
1
1
1
1
1
1
1
1
1
1
2
2
2
39
39
39
23
23
23
1
1
1
4
4
4
7
7
7
6
6
6
2
2
2
2
2
2
9
9
9
4
4
4
1
1
1
2
2
2
5
5
5
4
4
4
2
2
2
1
1
1
2
2
2
1
1
1
0
0
0
0
0
0
0
0
0
0
0
0
0
0
0
0
0
0
0
0
0
0
0
0
0
0
0
0
0
0
0
0
0
0
0
0
0
0
0
0
0
0
0
0
0
0
0
0
0
0
0
0
0
0
0
0
0
0
0
0
0
0
0
0
0
0
1
1
1
2
2
2
3
3
3
3
3
3
4
4
4
4
4
4
2
2
2
1
1
1
2
2
2
11
11
11
126
126
126
77
77
77
1
1
1
4
4
4
4
4
4
4
4
4
2
2
2
3
3
3
18
18
18
7
7
7
1
1
1
3
3
3
6
6
6
2
2
2
1
1
1
2
2
2
4
4
4
2
2
2
1
1
1
0
0
0
0
0
0
0
0
0
0
0
0
0
0
0
0
0
0
0
0
0
0
0
0
0
0
0
0
0
0
0
0
0
0
0
0
0
0
0
0
0
0
0
0
0
0
0
0
0
0
0
0
0
0
0
0
0
1
1
1
1
1
1
2
2
2
3
3
3
3
3
3
1
1
1
2
2
2
2
2
2
3
3
3
2
2
2
1
1
1
10
10
10
108
108
108
68
68
68
2
2
2
9
9
9
5
5
5
2
2
2
1
1
1
3
3
3
30
30
30
12
12
12
2
2
2
2
2
2
2
2
2
2
2
2
2
2
2
4
4
4
3
3
3
3
3
3
2
2
2
1
1
1
0
0
0
0
0
0
0
0
0
0
0
0
0
0
0
0
0
0
0
0
0
0
0
0
0
0
0
0
0
0
0
0
0
0
0
0
0
0
0
0
0
0
0
0
0
0
0
0
0
0
0
1
1
1
1
1
1
0
0
0
2
2
2
2
2
2
1
1
1
1
1
1
1
1
1
2
2
2
5
5
5
2
2
2
1
1
1
2
2
2
21
21
21
13
13
13
2
2
2
4
4
4
3
3
3
1
1
1
1
1
1
3
3
3
36
36
36
26
26
26
2
2
2
2
2
2
2
2
2
2
2
2
1
1
1
2
2
2
1
1
1
1
1
1
2
2
2
1
1
1
0
0
0
1
1
1
0
0
0
0
0
0
0
0
0
0
0
0
0
0
0
0
0
0
0
0
0
0
0
0
0
0
0
0
0
0
0
0
0
0
0
0
0
0
0
0
0
0
0
0
0
1
1
1
1
1
1
1
1
1
1
1
1
1
1
1
1
1
1
1
1
1
2
2
2
2
2
2
3
3
3
2
2
2
3
3
3
3
3
3
2
2
2
3
3
3
3
3
3
3
3
3
2
2
2
1
1
1
1
1
1
2
2
2
6
6
6
6
6
6
2
2
2
1
1
1
2
2
2
2
2
2
2
2
2
1
1
1
1
1
1
1
1
1
1
1
1
1
1
1
1
1
1
1
1
1
0
0
0
0
0
0
0
0
0
0
0
0
0
0
0
0
0
0
0
0
0
0
0
0
0
0
0
0
0
0
0
0
0
0
0
0
0
0
0
0
0
0
0
0
0
0
0
0
0
0
0
1
1
1
1
1
1
1
1
1
1
1
1
2
2
2
2
2
2
7
7
7
32
32
32
11
11
11
5
5
5
41
41
41
27
27
27
6
6
6
2
2
2
3
3
3
2
2
2
2
2
2
3
3
3
4
4
4
8
8
8
4
4
4
4
4
4
2
2
2
12
12
12
9
9
9
2
2
2
1
1
1
1
1
1
1
1
1
1
1
1
1
1
1
1
1
1
0
0
0
1
1
1
1
1
1
1
1
1
0
0
0
0
0
0
0
0
0
0
0
0
0
0
0
0
0
0
0
0
0
0
0
0
0
0
0
0
0
0
1
1
1
0
0
0
0
0
0
0
0
0
1
1
1
1
1
1
1
1
1
1
1
1
2
2
2
6
6
6
71
71
71
170
170
170
85
85
85
6
6
6
79
79
79
85
85
85
39
39
39
4
4
4
5
5
5
2
2
2
3
3
3
6
6
6
15
15
15
45
45
45
52
52
52
32
32
32
8
8
8
113
113
113
135
135
135
49
49
49
3
3
3
1
1
1
1
1
1
1
1
1
1
1
1
0
0
0
0
0
0
0
0
0
1
1
1
0
0
0
0
0
0
0
0
0
0
0
0
0
0
0
0
0
0
0
0
0
0
0
0
0
0
0
0
0
0
1
1
1
1
1
1
0
0
0
0
0
0
0
0
0
1
1
1
2
2
2
1
1
1
1
1
1
2
2
2
54
54
54
155
155
155
186
186
186
84
84
84
2
2
2
61
61
61
102
102
102
98
98
98
24
24
24
8
8
8
8
8
8
11
11
11
4
4
4
68
68
68
130
130
130
108
108
108
54
54
54
3
3
3
106
106
106
166
166
166
141
141
141
34
34
34
2
2
2
1
1
1
1
1
1
1
1
1
0
0
0
0
0
0
0
0
0
1
1
1
0
0
0
0
0
0
0
0
0
0
0
0
0
0
0
0
0
0
0
0
0
0
0
0
0
0
0
0
0
0
1
1
1
1
1
1
0
0
0
0
0
0
1
1
1
1
1
1
2
2
2
1
1
1
7
7
7
49
49
49
116
116
116
182
182
182
184
184
184
54
54
54
1
1
1
90
90
90
128
128
128
78
78
78
16
16
16
12
12
12
21
21
21
21
21
21
5
5
5
47
47
47
120
120
120
133
133
133
61
61
61
2
2
2
128
128
128
148
148
148
149
149
149
45
45
45
2
2
2
1
1
1
1
1
1
1
1
1
1
1
1
0
0
0
0
0
0
1
1
1
1
1
1
0
0
0
0
0
0
0
0
0
0
0
0
0
0
0
0
0
0
0
0
0
0
0
0
1
1
1
1
1
1
0
0
0
1
1
1
1
1
1
1
1
1
2
2
2
2
2
2
4
4
4
88
88
88
167
167
167
139
139
139
198
198
198
165
165
165
43
43
43
42
42
42
49
49
49
88
88
88
32
32
32
2
2
2
14
14
14
33
33
33
20
20
20
5
5
5
2
2
2
45
45
45
110
110
110
56
56
56
3
3
3
110
110
110
164
164
164
146
146
146
96
96
96
61
61
61
2
2
2
1
1
1
1
1
1
1
1
1
1
1
1
0
0
0
1
1
1
1
1
1
1
1
1
0
0
0
0
0
0
0
0
0
0
0
0
0
0
0
0
0
0
1
1
1
1
1
1
1
1
1
1
1
1
0
0
0
1
1
1
1
1
1
2
2
2
2
2
2
44
44
44
189
189
189
181
181
181
165
165
165
181
181
181
82
82
82
106
106
106
130
130
130
67
67
67
4
4
4
1
1
1
2
2
2
6
6
6
14
14
14
4
4
4
2
2
2
2
2
2
9
9
9
25
25
25
52
52
52
65
65
65
40
40
40
148
148
148
147
147
147
145
145
145
140
140
140
41
41
41
2
2
2
2
2
2
1
1
1
1
1
1
0
0
0
0
0
0
1
1
1
0
0
0
0
0
0
0
0
0
0
0
0
0
0
0
0
0
0
0
0
0
1
1
1
1
1
1
1
1
1
1
1
1
0
0
0
1
1
1
1
1
1
3
3
3
2
2
2
42
42
42
145
145
145
180
180
180
193
193
193
161
161
161
112
112
112
137
137
137
124
124
124
111
111
111
37
37
37
2
2
2
3
3
3
3
3
3
2
2
2
2
2
2
2
2
2
2
2
2
8
8
8
48
48
48
101
101
101
116
116
116
78
78
78
143
143
143
148
148
148
121
121
121
161
161
161
122
122
122
3
3
3
2
2
2
1
1
1
0
0
0
0
0
0
0
0
0
0
0
0
1
1
1
1
1
1
0
0
0
0
0
0
0
0
0
0
0
0
0
0
0
1
1
1
1
1
1
1
1
1
1
1
1
0
0
0
1
1
1
1
1
1
2
2
2
3
3
3
16
16
16
132
132
132
190
190
190
195
195
195
127
127
127
152
152
152
131
131
131
106
106
106
133
133
133
58
58
58
18
18
18
21
21
21
11
11
11
2
2
2
4
4
4
10
10
10
15
15
15
31
31
31
98
98
98
87
87
87
98
98
98
111
111
111
121
121
121
151
151
151
114
114
114
153
153
153
119
119
119
5
5
5
3
3
3
1
1
1
0
0
0
0
0
0
0
0
0
1
1
1
1
1
1
1
1
1
0
0
0
0
0
0
0
0
0
0
0
0
0
0
0
1
1
1
1
1
1
1
1
1
0
0
0
0
0
0
1
1
1
1
1
1
3
3
3
6
6
6
19
19
19
86
86
86
161
161
161
159
159
159
96
96
96
155
155
155
128
128
128
100
100
100
91
91
91
53
53
53
62
62
62
34
34
34
32
32
32
14
14
14
25
25
25
22
22
22
41
41
41
43
43
43
75
75
75
82
82
82
89
89
89
129
129
129
78
78
78
127
127
127
122
122
122
140
140
140
100
100
100
3
3
3
3
3
3
1
1
1
0
0
0
0
0
0
0
0
0
0
0
0
1
1
1
0
0
0
0
0
0
0
0
0
0
0
0
0
0
0
0
0
0
1
1
1
1
1
1
0
0
0
0
0
0
1
1
1
1
1
1
1
1
1
2
2
2
5
5
5
14
14
14
33
33
33
117
117
117
142
142
142
99
99
99
138
138
138
130
130
130
79
79
79
66
66
66
116
116
116
81
81
81
46
46
46
54
54
54
43
43
43
51
51
51
47
47
47
54
54
54
94
94
94
55
55
55
54
54
54
95
95
95
121
121
121
59
59
59
111
111
111
110
110
110
124
124
124
96
96
96
3
3
3
2
2
2
1
1
1
0
0
0
0
0
0
0
0
0
0
0
0
1
1
1
0
0
0
0
0
0
0
0
0
0
0
0
0
0
0
0
0
0
1
1
1
1
1
1
1
1
1
1
1
1
1
1
1
1
1
1
2
2
2
2
2
2
3
3
3
15
15
15
45
45
45
119
119
119
136
136
136
133
133
133
119
119
119
117
117
117
82
82
82
78
78
78
98
98
98
88
88
88
77
77
77
45
45
45
58
58
58
45
45
45
78
78
78
91
91
91
111
111
111
71
71
71
60
60
60
98
98
98
88
88
88
53
53
53
88
88
88
102
102
102
92
92
92
76
76
76
11
11
11
2
2
2
1
1
1
0
0
0
0
0
0
0
0
0
0
0
0
0
0
0
0
0
0
0
0
0
0
0
0
0
0
0
0
0
0
0
0
0
0
0
0
0
0
0
0
0
0
0
0
0
0
0
0
0
0
0
1
1
1
2
2
2
2
2
2
34
34
34
81
81
81
129
129
129
137
137
137
137
137
137
130
130
130
103
103
103
78
78
78
78
78
78
73
73
73
81
81
81
81
81
81
73
73
73
52
52
52
76
76
76
90
90
90
94
94
94
84
84
84
81
81
81
73
73
73
91
91
91
61
61
61
69
69
69
76
76
76
87
87
87
104
104
104
101
101
101
11
11
11
2
2
2
1
1
1
0
0
0
0
0
0
0
0
0
0
0
0
0
0
0
0
0
0
0
0
0
0
0
0
0
0
0
0
0
0
0
0
0
0
0
0
0
0
0
0
0
0
0
0
0
0
0
0
1
1
1
1
1
1
3
3
3
3
3
3
61
61
61
154
154
154
160
160
160
142
142
142
135
135
135
124
124
124
92
92
92
79
79
79
65
65
65
62
62
62
74
74
74
48
48
48
47
47
47
31
31
31
45
45
45
67
67
67
94
94
94
78
78
78
81
81
81
72
72
72
81
81
81
88
88
88
80
80
80
82
82
82
92
92
92
110
110
110
105
105
105
19
19
19
2
2
2
1
1
1
0
0
0
0
0
0
0
0
0
0
0
0
0
0
0
0
0
0
0
0
0
0
0
0
0
0
0
0
0
0
0
0
0
0
0
0
0
0
0
0
0
0
0
0
0
0
0
0
0
0
0
1
1
1
3
3
3
3
3
3
48
48
48
142
142
142
148
148
148
153
153
153
159
159
159
132
132
132
90
90
90
73
73
73
46
46
46
46
46
46
53
53
53
10
10
10
5
5
5
7
7
7
4
4
4
35
35
35
91
91
91
66
66
66
78
78
78
84
84
84
94
94
94
100
100
100
93
93
93
92
92
92
96
96
96
114
114
114
106
106
106
17
17
17
3
3
3
0
0
0
0
0
0
0
0
0
0
0
0
0
0
0
0
0
0
0
0
0
0
0
0
0
0
0
0
0
0
0
0
0
0
0
0
0
0
0
0
0
0
0
0
0
0
0
0
0
0
0
1
1
1
1
1
1
4
4
4
8
8
8
133
133
133
212
212
212
177
177
177
154
154
154
162
162
162
142
142
142
91
91
91
34
34
34
14
14
14
29
29
29
43
43
43
11
11
11
3
3
3
3
3
3
5
5
5
26
26
26
46
46
46
37
37
37
46
46
46
86
86
86
97
97
97
102
102
102
103
103
103
102
102
102
107
107
107
148
148
148
133
133
133
5
5
5
5
5
5
0
0
0
0
0
0
0
0
0
0
0
0
0
0
0
0
0
0
0
0
0
0
0
0
0
0
0
0
0
0
0
0
0
0
0
0
0
0
0
0
0
0
1
1
1
0
0
0
0
0
0
1
1
1
1
1
1
4
4
4
5
5
5
151
151
151
228
228
228
171
171
171
118
118
118
166
166
166
160
160
160
88
88
88
8
8
8
9
9
9
64
64
64
116
116
116
67
67
67
28
28
28
6
6
6
27
27
27
46
46
46
54
54
54
12
12
12
9
9
9
74
74
74
119
119
119
139
139
139
139
139
139
136
136
136
144
144
144
168
168
168
108
108
108
4
4
4
5
5
5
0
0
0
0
0
0
0
0
0
0
0
0
0
0
0
0
0
0
0
0
0
0
0
0
0
0
0
0
0
0
0
0
0
0
0
0
0
0
0
0
0
0
0
0
0
0
0
0
0
0
0
1
1
1
1
1
1
2
2
2
2
2
2
97
97
97
224
224
224
200
200
200
129
129
129
162
162
162
195
195
195
124
124
124
19
19
19
34
34
34
127
127
127
143
143
143
114
114
114
83
83
83
52
52
52
110
110
110
88
88
88
87
87
87
24
24
24
8
8
8
85
85
85
138
138
138
157
157
157
149
149
149
149
149
149
163
163
163
167
167
167
59
59
59
3
3
3
2
2
2
0
0
0
0
0
0
0
0
0
0
0
0
0
0
0
0
0
0
0
0
0
0
0
0
0
0
0
0
0
0
0
0
0
0
0
0
0
0
0
0
0
0
0
0
0
0
0
0
0
0
0
1
1
1
0
0
0
2
2
2
4
4
4
42
42
42
195
195
195
242
242
242
184
184
184
113
113
113
199
199
199
192
192
192
104
104
104
147
147
147
194
194
194
153
153
153
126
126
126
75
75
75
106
106
106
137
137
137
123
123
123
124
124
124
70
70
70
46
46
46
120
120
120
157
157
157
117
117
117
117
117
117
124
124
124
171
171
171
118
118
118
17
17
17
5
5
5
2
2
2
0
0
0
0
0
0
0
0
0
0
0
0
0
0
0
0
0
0
0
0
0
0
0
0
0
0
0
0
0
0
0
0
0
0
0
0
0
0
0
0
0
0
0
0
0
0
0
0
0
0
0
1
1
1
0
0
0
2
2
2
8
8
8
4
4
4
120
120
120
231
231
231
176
176
176
103
103
103
156
156
156
234
234
234
224
224
224
204
204
204
196
196
196
162
162
162
133
133
133
123
123
123
106
106
106
130
130
130
128
128
128
131
131
131
135
135
135
142
142
142
159
159
159
158
158
158
76
76
76
59
59
59
69
69
69
150
150
150
67
67
67
2
2
2
7
7
7
1
1
1
0
0
0
1
1
1
0
0
0
0
0
0
0
0
0
0
0
0
0
0
0
0
0
0
0
0
0
0
0
0
0
0
0
0
0
0
0
0
0
0
0
0
0
0
0
0
0
0
0
0
0
1
1
1
1
1
1
1
1
1
11
11
11
3
3
3
34
34
34
133
133
133
214
214
214
215
215
215
212
212
212
246
246
246
241
241
241
206
206
206
185
185
185
166
166
166
139
139
139
132
132
132
87
87
87
134
134
134
136
136
136
130
130
130
133
133
133
175
175
175
186
186
186
175
175
175
134
134
134
133
133
133
146
146
146
69
69
69
10
10
10
6
6
6
12
12
12
1
1
1
0
0
0
1
1
1
0
0
0
0
0
0
0
0
0
0
0
0
0
0
0
0
0
0
0
0
0
0
0
0
0
0
0
0
0
0
0
0
0
0
0
0
0
0
0
0
0
0
1
1
1
1
1
1
1
1
1
1
1
1
13
13
13
5
5
5
2
2
2
73
73
73
221
221
221
223
223
223
204
204
204
234
234
234
248
248
248
230
230
230
177
177
177
151
151
151
152
152
152
145
145
145
133
133
133
173
173
173
140
140
140
154
154
154
157
157
157
174
174
174
183
183
183
173
173
173
167
167
167
167
167
167
158
158
158
53
53
53
1
1
1
10
10
10
9
9
9
1
1
1
1
1
1
0
0
0
0
0
0
1
1
1
0
0
0
0
0
0
0
0
0
0
0
0
0
0
0
0
0
0
0
0
0
0
0
0
0
0
0
0
0
0
0
0
0
0
0
0
1
1
1
1
1
1
1
1
1
1
1
1
3
3
3
7
7
7
5
5
5
23
23
23
143
143
143
194
194
194
144
144
144
196
196
196
212
212
212
222
222
222
198
198
198
118
118
118
101
101
101
108
108
108
121
121
121
171
171
171
168
168
168
161
161
161
185
185
185
136
136
136
150
150
150
142
142
142
95
95
95
144
144
144
91
91
91
6
6
6
3
3
3
7
7
7
2
2
2
1
1
1
0
0
0
0
0
0
0
0
0
0
0
0
0
0
0
0
0
0
0
0
0
0
0
0
0
0
0
0
0
0
0
0
0
0
0
0
0
0
0
0
0
0
0
0
0
0
0
0
0
0
0
1
1
1
1
1
1
1
1
1
1
1
1
4
4
4
7
7
7
2
2
2
21
21
21
53
53
53
114
114
114
218
218
218
190
190
190
196
196
196
219
219
219
161
161
161
89
89
89
88
88
88
54
54
54
113
113
113
182
182
182
179
179
179
164
164
164
96
96
96
165
165
165
149
149
149
42
42
42
28
28
28
5
5
5
1
1
1
4
4
4
2
2
2
1
1
1
0
0
0
0
0
0
0
0
0
0
0
0
0
0
0
0
0
0
0
0
0
0
0
0
0
0
0
0
0
0
0
0
0
0
0
0
0
0
0
0
0
0
0
0
0
0
0
0
0
0
0
0
0
0
1
1
1
1
1
1
1
1
1
1
1
1
1
1
1
3
3
3
4
4
4
3
3
3
3
3
3
70
70
70
187
187
187
170
170
170
173
173
173
216
216
216
186
186
186
129
129
129
117
117
117
43
43
43
112
112
112
196
196
196
204
204
204
136
136
136
161
161
161
190
190
190
135
135
135
30
30
30
2
2
2
1
1
1
2
2
2
2
2
2
1
1
1
1
1
1
1
1
1
0
0
0
0
0
0
0
0
0
0
0
0
0
0
0
0
0
0
0
0
0
0
0
0
0
0
0
0
0
0
0
0
0
0
0
0
0
0
0
0
0
0
0
0
0
0
0
0
0
0
0
1
1
1
0
0
0
0
0
0
1
1
1
1
1
1
1
1
1
2
2
2
3
3
3
1
1
1
3
3
3
46
46
46
65
65
65
144
144
144
172
172
172
179
179
179
107
107
107
68
68
68
23
23
23
101
101
101
206
206
206
171
171
171
106
106
106
150
150
150
128
128
128
44
44
44
3
3
3
2
2
2
3
3
3
1
1
1
1
1
1
1
1
1
1
1
1
0
0
0
0
0
0
0
0
0
0
0
0
0
0
0
0
0
0
0
0
0
0
0
0
0
0
0
0
0
0
0
0
0
0
0
0
0
0
0
0
0
0
0
0
0
0
0
0
0
0
0
0
0
0
0
0
0
0
0
0
0
0
0
1
1
1
1
1
1
1
1
1
1
1
1
2
2
2
2
2
2
2
2
2
1
1
1
3
3
3
31
31
31
39
39
39
50
50
50
31
31
31
11
11
11
2
2
2
46
46
46
123
123
123
73
73
73
23
23
23
28
28
28
10
10
10
1
1
1
2
2
2
2
2
2
1
1
1
1
1
1
0
0
0
1
1
1
0
0
0
0
0
0
0
0
0
0
0
0
0
0
0
0
0
0
0
0
0
0
0
0
0
0
0
0
0
0
0
0
0
0
0
0
0
0
0
0
0
0
0
0
0
0
0
0
0
0
0
0
0
0
0
0
0
0
0
0
0
0
0
0
0
0
0
0
0
0
0
0
0
0
0
0
0
0
1
1
1
1
1
1
2
2
2
2
2
2
2
2
2
2
2
2
2
2
2
2
2
2
1
1
1
1
1
1
1
1
1
1
1
1
3
3
3
2
2
2
2
2
2
2
2
2
1
1
1
2
2
2
2
2
2
1
1
1
1
1
1
0
0
0
1
1
1
1
1
1
0
0
0
0
0
0
0
0
0
0
0
0
0
0
0
0
0
0
0
0
0
0
0
0
0
0
0
0
0
0
0
0
0
0
0
0
0
0
0
0
0
0
0
0
0
0
0
0
0
0
0
0
0
0
0
0
0
0
0
0
0
0
0
0
0
0
0
0
0
0
0
0
0
0
0
1
1
1
1
1
1
1
1
1
1
1
1
1
1
1
1
1
1
1
1
1
2
2
2
2
2
2
2
2
2
2
2
2
2
2
2
3
3
3
2
2
2
2
2
2
2
2
2
2
2
2
2
2
2
1
1
1
1
1
1
1
1
1
1
1
1
1
1
1
1
1
1
0
0
0
0
0
0
0
0
0
0
0
0
0
0
0
0
0
0
0
0
0
0
0
0
0
0
0
0
0
0
0
0
0
0
0
0
0
0
0
0
0
0
0
0
0
0
0
0
0
0
0
0
0
0
0
0
0
0
0
0
0
0
0
0
0
0
0
0
0
0
0
0
0
0
0
0
0
0
0
0
0
0
0
0
1
1
1
1
1
1
1
1
1
1
1
1
1
1
1
1
1
1
1
1
1
1
1
1
1
1
1
1
1
1
1
1
1
1
1
1
1
1
1
1
1
1
1
1
1
1
1
1
1
1
1
1
1
1
1
1
1
1
1
1
0
0
0
0
0
0
0
0
0
0
0
0
0
0
0
0
0
0
0
0
0
0
0
0
0
0
0
0
0
0
0
0
0
0
0
0
0
0
0
0
0
0
0
0
0
0
0
0
0
0
0
0
0
0
0
0
0
0
0
0
0
0
0
0
0
0
0
0
0
0
0
0
0
0
0
0
0
0
0
0
0
0
0
0
0
0
0
0
0
0
0
0
0
0
0
0
1
1
1
1
1
1
0
0
0
1
1
1
1
1
1
1
1
1
1
1
1
1
1
1
0
0
0
0
0
0
0
0
0
1
1
1
1
1
1
0
0
0
0
0
0
0
0
0
0
0
0
0
0
0
0
0
0
0
0
0
0
0
0
0
0
0
0
0
0
0
0
0
0
0
0
0
0
0
0
0
0
0
0
0
0
0
0
0
0
0
0
0
0
0
0
0
0
0
0
0
0
0
0
0
0
0
0
0
0
0
0
0
0
0
0
0
0
0
0
0
0
0
0
0
0
0
0
0
0
0
0
0
0
0
0
0
0
0
0
0
0
0
0
0
0
0
0
0
0
0
0
0
0
0
0
0
0
0
0
1
1
1
1
1
1
0
0
0
1
1
1
0
0
0
0
0
0
0
0
0
1
1
1
0
0
0
0
0
0
0
0
0
0
0
0
0
0
0
0
0
0
0
0
0
0
0
0
0
0
0
0
0
0
0
0
0
0
0
0
0
0
0
0
0
0
0
0
0
0
0
0
0
0
0
0
0
0
0
0
0
0
0
0
0
0
0
0
0
0
0
0
0
0
0
0
0
0
0
0
0
0
0
0
0
0
0
0
0
0
0
0
0
0
0
0
0
0
0
0
0
0
0
0
0
0
0
0
0
0
0
0
0
0
0
0
0
0
0
0
0
0
0
0
0
0
0
0
0
0
0
0
0
0
0
0
0
0
0
0
0
0
0
0
0
0
0
0
0
0
0
0
0
0
0
0
0
0
0
0
0
0
0
0
0
0
0
0
0
0
0
0
0
0
0
0
0
0
0
0
0
0
0
0
0
0
0
0
0
0
0
0
0
0
0
0
0
0
0
0
0
0
0
0
0
0
0
0
0
0
0
0
0
0
0
0
0
0
0
0
0
0
0
0
0
0
0
0
0
0
0
0
0
0
0
0
0
0
0
0
0
0
0
0
0
0
0
0
0
0
0
0
0
0
0
0
0
0
0
0
0
0
0
0
0
0
0
0
0
0
0
0
0
0
0
0
0
0
0
0
0
0
0
0
0
0
0
0
0
0
0
0
0
0
0
0
0
0
0
0
0
0
0
0
0
0
0
0
0
0
0
0
0
0
0
0
0
0
0
0
0
0
0
0
0
0
0
0
0
0
0
0
0
0
0
0
0
0
0
0
0
0
0
0
0
0
0
0
0
0
0
0
0
0
0
0
0
0
0
0
0
0
0
0
0
0
0
0
0
0
0
0
0
0
0
0
0
0
0
0
0
0
0
0
0
0
0
0
0
0
0
0
0
0
0
0
0
0
0
0
0
0
0
0
0
0
0
0
0
0
0
0
0
0
0
0
0
0
0
0
0
0
0
0
0
0
0
0
0
0
0
0
0
0
0
0
0
0
0
0
0
0
0
0
0
0
0
0
0
0
0
0
0
0
0
0
0
0
0
0
0
0
0
0
0
0
0
0
0
0
0
0
0
0
0
0
0
0
0
0
0
0
0
0
0
0
0
0
0
0
0
0
0
0
0
0
0
0
0
0
0
0
0
0
0
0
0
0
0
0
0
0
0
0
0
0
0
0
0
0
0
0
0
0
0
0
0
0
0
0
0
0
0
0
0
0
0
0
0
0
0
0
0
0
0
0
0
0
0
0
0
0
0
0
0
0
0
0
0
0
0
0
0
0
0
0
0
0
0
0
0
0
0
0
0
0
0
0
0
0
0
0
0
0
0
0
0
0
0
0
0
0
0
0
0
0
0
0
0
0
0
0
0
0
0
0
0
0
0
0
0
0
0
0
0
0
0
0
0
0
0
0
0
0
0
0
0
0
0
0
0
0
0
0
0
0
0
0
0
0
0
0
0
0
0
0
0
0
0
0
0
0
0
0
0
0
0
0
0
0
0
0
0
0
0
0
0
0
0
0
