P3
# algun comentario xD
50 50
255
255 255 0 255 255 0 255 255 0 255 255 0 255 255 0 0 0 0 0 0 0 0 0 0 255 255 0 0 0 0 255 255 0 0 0 0 0 0 0 255 255 0 0 100 0 0 100 0 0 100 0 0 0 0 0 100 0 0 100 0 0 100 0 0 0 0 0 100 0 0 0 0 0 0 0 0 0 0 0 0 0 0 0 0 0 100 0 0 0 0 0 0 0 0 0 0 0 0 0 0 0 0 0 0 0 0 0 0 0 0 0 0 0 0 0 0 0 0 0 0 0 0 0 0 0 0 0 100 0 0 0 0 0 0 0 0 0 0 0 0 0 0 100 0 0 100 0 255 255 0 
0 0 0 0 100 0 0 0 0 0 100 0 0 0 0 0 100 0 0 100 0 0 100 0 0 100 0 0 0 0 0 100 0 0 0 0 0 100 0 0 0 0 0 0 0 0 0 0 0 0 0 0 0 0 0 0 0 0 0 0 255 255 0 0 0 0 0 0 0 0 100 0 0 0 0 0 0 0 0 0 0 0 0 0 0 0 0 0 0 0 0 100 0 0 0 0 0 0 0 0 100 0 255 255 0 0 0 0 0 0 0 255 255 0 0 100 0 0 0 0 0 100 0 255 255 0 0 100 0 0 0 0 0 0 0 0 0 0 0 0 0 0 0 0 0 100 0 0 0 0 
0 0 0 0 0 0 0 0 0 0 100 0 0 100 0 255 255 0 0 0 0 255 255 0 0 100 0 0 0 0 255 255 0 0 0 0 0 100 0 0 0 0 0 100 0 0 100 0 0 100 0 0 0 0 0 100 0 0 0 0 0 0 0 0 100 0 0 100 0 0 100 0 0 0 0 0 100 0 0 100 0 0 100 0 0 100 0 0 100 0 0 100 0 0 0 0 0 0 0 0 0 0 0 0 0 0 0 0 0 0 0 0 0 0 0 0 0 0 0 0 0 0 0 0 0 0 0 0 0 0 0 0 0 100 0 0 100 0 0 100 0 0 0 0 255 255 0 0 0 0 
0 100 0 0 0 0 0 100 0 0 100 0 255 255 0 0 100 0 0 0 0 0 100 0 0 100 0 0 0 0 0 100 0 0 0 0 0 100 0 0 0 0 255 255 0 255 255 0 0 0 0 255 255 0 255 255 0 255 255 0 0 100 0 255 255 0 0 0 0 0 100 0 0 100 0 0 0 0 0 0 0 0 0 0 0 0 0 0 0 0 0 0 0 0 0 0 0 0 0 0 0 0 0 0 0 0 0 0 0 0 0 0 0 0 0 0 0 0 0 0 0 0 0 0 0 0 0 0 0 0 0 0 0 0 0 0 0 0 0 100 0 0 0 0 255 255 0 255 255 0 
255 255 0 0 0 0 0 100 0 0 0 0 0 0 0 0 100 0 0 0 0 255 255 0 0 100 0 0 0 0 255 255 0 255 255 0 255 255 0 0 0 0 0 100 0 255 255 0 0 0 0 0 100 0 255 255 0 0 0 0 0 0 0 255 255 0 0 0 0 255 255 0 0 0 0 0 0 0 0 0 0 0 0 0 0 0 0 0 0 0 0 0 0 0 0 0 0 0 0 0 0 0 0 0 0 0 0 0 0 0 0 0 0 0 0 0 0 0 0 0 0 0 0 0 0 0 0 0 0 0 0 0 0 100 0 0 0 0 0 0 0 0 0 0 0 0 0 0 0 0 
0 0 0 0 0 0 0 0 0 0 0 0 0 100 0 0 0 0 0 0 0 0 0 0 0 0 0 0 0 0 0 0 0 0 100 0 0 0 0 0 0 0 0 100 0 0 0 0 0 0 0 0 0 0 0 0 0 0 0 0 0 0 0 0 0 0 0 0 0 0 0 0 0 0 0 0 0 0 255 255 0 0 0 0 0 0 0 0 0 0 0 0 0 0 100 0 0 100 0 0 0 0 0 0 0 0 0 0 0 0 0 0 100 0 0 0 0 0 0 0 0 0 0 0 0 0 0 0 0 0 0 0 0 100 0 0 100 0 0 0 0 0 0 0 0 0 0 255 255 0 
0 0 0 0 0 0 0 100 0 0 100 0 255 255 0 0 0 0 0 0 0 0 100 0 0 0 0 0 0 0 0 100 0 0 0 0 0 0 0 0 0 0 0 100 0 255 255 0 0 100 0 0 100 0 0 100 0 0 100 0 255 255 0 0 100 0 0 100 0 0 100 0 0 0 0 0 0 0 0 0 0 0 0 0 0 0 0 0 0 0 0 0 0 0 0 0 0 0 0 0 0 0 0 0 0 0 0 0 0 0 0 0 0 0 0 0 0 0 0 0 0 0 0 0 100 0 0 0 0 0 0 0 0 0 0 0 100 0 0 0 0 0 100 0 0 0 0 0 0 0 
0 0 0 0 0 0 0 0 0 0 0 0 255 255 0 0 0 0 0 0 0 0 100 0 0 100 0 255 255 0 255 255 0 0 100 0 0 100 0 0 0 0 0 100 0 0 100 0 0 0 0 0 100 0 0 0 0 0 0 0 255 255 0 0 100 0 0 0 0 0 100 0 0 0 0 0 0 0 0 0 0 0 0 0 0 0 0 0 0 0 0 0 0 0 0 0 0 0 0 0 0 0 0 0 0 0 0 0 0 0 0 0 0 0 0 0 0 0 0 0 0 0 0 0 100 0 0 0 0 0 0 0 0 0 0 0 0 0 0 100 0 0 0 0 255 255 0 0 0 0 
0 0 0 0 0 0 0 0 0 0 0 0 0 100 0 0 0 0 0 0 0 0 100 0 0 100 0 0 0 0 0 0 0 0 0 0 0 0 0 0 0 0 0 0 0 0 0 0 0 0 0 0 0 0 0 0 0 0 0 0 255 255 0 0 100 0 0 0 0 0 100 0 255 255 0 0 0 0 0 0 0 0 0 0 0 0 0 0 0 0 0 0 0 0 0 0 0 0 0 0 0 0 0 0 0 0 100 0 0 0 0 255 255 0 0 0 0 0 0 0 0 0 0 0 0 0 0 100 0 0 100 0 0 100 0 0 0 0 0 100 0 0 100 0 255 255 0 0 0 0 
0 0 0 0 0 0 0 100 0 0 100 0 0 100 0 0 0 0 0 0 0 255 255 0 0 0 0 255 255 0 0 0 0 0 100 0 0 0 0 0 0 0 0 0 0 0 0 0 0 100 0 0 100 0 0 0 0 0 0 0 0 0 0 0 0 0 0 0 0 0 0 0 0 100 0 0 0 0 0 0 0 0 0 0 0 0 0 0 0 0 0 0 0 0 0 0 0 0 0 0 0 0 0 0 0 0 100 0 0 0 0 255 255 0 0 0 0 0 100 0 0 0 0 0 0 0 0 0 0 0 100 0 0 0 0 0 0 0 0 100 0 0 100 0 0 0 0 0 0 0 
0 0 0 0 0 0 0 100 0 0 100 0 0 0 0 0 0 0 0 100 0 0 100 0 0 0 0 0 100 0 0 100 0 0 100 0 0 100 0 255 255 0 0 100 0 0 100 0 0 0 0 255 255 0 255 255 0 255 255 0 0 100 0 0 0 0 255 255 0 0 0 0 0 0 0 0 0 0 0 0 0 0 0 0 0 0 0 0 0 0 0 0 0 0 0 0 0 0 0 0 0 0 0 100 0 0 100 0 0 0 0 0 0 0 0 0 0 0 100 0 0 0 0 0 0 0 0 0 0 0 0 0 0 0 0 0 0 0 0 0 0 0 0 0 0 0 0 0 0 0 
0 0 0 0 0 0 255 255 0 255 255 0 0 0 0 0 0 0 0 100 0 255 255 0 0 0 0 255 255 0 255 255 0 0 0 0 0 0 0 255 255 0 0 0 0 0 100 0 0 0 0 0 100 0 0 0 0 0 100 0 0 100 0 0 100 0 0 0 0 0 0 0 0 0 0 0 0 0 0 0 0 0 0 0 0 0 0 0 0 0 0 0 0 0 0 0 0 0 0 0 100 0 0 0 0 255 255 0 0 0 0 0 0 0 0 100 0 0 0 0 0 0 0 0 100 0 0 0 0 0 100 0 0 100 0 0 0 0 0 100 0 0 0 0 255 255 0 0 0 0 
0 0 0 0 100 0 0 0 0 0 0 0 0 0 0 0 0 0 0 100 0 0 0 0 0 100 0 0 0 0 0 0 0 255 255 0 0 0 0 0 100 0 0 0 0 0 0 0 0 0 0 255 255 0 0 0 0 0 0 0 0 0 0 0 0 0 0 0 0 0 0 0 0 0 0 0 0 0 0 0 0 0 0 0 0 0 0 0 0 0 0 0 0 0 0 0 255 255 0 0 100 0 0 0 0 0 0 0 255 255 0 0 0 0 0 0 0 0 0 0 0 0 0 0 0 0 0 0 0 0 0 0 0 100 0 0 0 0 0 0 0 0 0 0 255 255 0 0 0 0 
0 0 0 0 100 0 0 0 0 255 255 0 0 0 0 0 100 0 255 255 0 0 0 0 0 100 0 0 0 0 0 100 0 0 0 0 0 0 0 0 100 0 0 0 0 0 0 0 0 0 0 0 100 0 0 100 0 0 100 0 0 0 0 0 0 0 0 0 0 0 0 0 0 0 0 0 0 0 0 0 0 0 0 0 0 0 0 0 0 0 0 0 0 0 100 0 0 0 0 0 100 0 255 255 0 0 0 0 255 255 0 0 0 0 0 0 0 0 0 0 0 0 0 0 0 0 0 0 0 0 100 0 0 0 0 0 0 0 0 100 0 0 0 0 255 255 0 0 100 0 
0 0 0 0 0 0 0 0 0 0 0 0 0 0 0 0 0 0 0 100 0 0 0 0 0 0 0 0 0 0 0 100 0 0 0 0 0 0 0 0 0 0 255 255 0 0 100 0 0 0 0 0 0 0 255 255 0 0 0 0 0 0 0 0 0 0 0 0 0 0 0 0 0 0 0 0 0 0 0 0 0 0 0 0 0 0 0 0 0 0 0 0 0 0 100 0 0 100 0 0 100 0 0 0 0 0 100 0 255 255 0 0 0 0 0 0 0 0 0 0 0 0 0 0 0 0 0 100 0 0 0 0 0 0 0 0 0 0 0 0 0 0 0 0 0 0 0 0 100 0 
0 0 0 0 0 0 0 0 0 0 0 0 0 100 0 0 0 0 0 0 0 0 100 0 255 255 0 0 0 0 0 0 0 0 0 0 0 100 0 0 0 0 0 0 0 255 255 0 0 0 0 0 0 0 0 0 0 0 100 0 0 0 0 0 0 0 0 0 0 0 0 0 0 0 0 0 0 0 0 0 0 0 0 0 0 0 0 0 100 0 255 255 0 0 0 0 0 0 0 255 255 0 255 255 0 0 100 0 255 255 0 0 100 0 0 100 0 0 100 0 0 100 0 0 0 0 0 100 0 0 0 0 0 0 0 0 0 0 0 100 0 0 100 0 255 255 0 0 100 0 
0 0 0 0 0 0 255 255 0 0 100 0 0 100 0 0 100 0 0 100 0 255 255 0 255 255 0 0 0 0 0 0 0 0 0 0 0 0 0 0 0 0 0 0 0 0 0 0 0 0 0 0 100 0 0 0 0 0 0 0 0 0 0 0 0 0 0 0 0 0 0 0 0 0 0 0 0 0 0 0 0 0 100 0 0 0 0 0 0 0 255 255 0 0 0 0 255 255 0 0 0 0 0 0 0 0 0 0 255 255 0 0 0 0 0 0 0 0 0 0 0 0 0 0 0 0 0 0 0 255 255 0 0 0 0 255 255 0 0 0 0 0 0 0 255 255 0 0 100 0 
0 0 0 0 0 0 0 0 0 0 0 0 0 100 0 0 0 0 0 0 0 0 0 0 0 0 0 0 0 0 0 0 0 255 255 0 0 0 0 0 0 0 0 0 0 0 0 0 0 0 0 0 0 0 0 0 0 0 0 0 0 0 0 0 0 0 0 0 0 0 0 0 0 0 0 0 0 0 0 0 0 0 0 0 0 0 0 0 0 0 0 0 0 0 100 0 0 0 0 0 0 0 255 255 0 0 100 0 255 255 0 0 0 0 0 0 0 0 0 0 0 0 0 0 0 0 0 0 0 255 255 0 0 0 0 0 0 0 0 0 0 0 0 0 255 255 0 0 100 0 
0 0 0 0 0 0 0 100 0 255 255 0 0 100 0 255 255 0 255 255 0 0 0 0 0 0 0 0 100 0 0 0 0 0 100 0 0 0 0 0 0 0 0 0 0 0 0 0 255 255 0 0 0 0 0 0 0 0 0 0 0 0 0 0 0 0 0 0 0 0 0 0 0 0 0 0 0 0 0 0 0 0 0 0 0 100 0 0 0 0 0 100 0 0 100 0 0 0 0 0 0 0 0 0 0 0 0 0 0 100 0 0 100 0 0 100 0 0 0 0 0 0 0 0 0 0 0 0 0 0 0 0 0 0 0 0 0 0 0 100 0 0 100 0 0 0 0 0 0 0 
0 0 0 0 0 0 0 100 0 0 100 0 0 0 0 0 0 0 0 0 0 255 255 0 0 100 0 0 100 0 255 255 0 0 0 0 0 0 0 255 255 0 0 0 0 0 0 0 0 0 0 0 0 0 0 0 0 0 0 0 0 0 0 0 0 0 0 0 0 0 0 0 0 0 0 0 100 0 0 0 0 0 0 0 0 100 0 0 0 0 0 100 0 0 0 0 255 255 0 0 0 0 0 0 0 255 255 0 0 0 0 0 0 0 0 100 0 0 100 0 0 100 0 0 100 0 255 255 0 0 100 0 255 255 0 255 255 0 0 100 0 0 100 0 0 100 0 255 255 0 
0 0 0 255 255 0 0 0 0 0 0 0 0 0 0 255 255 0 0 0 0 255 255 0 255 255 0 0 0 0 0 100 0 0 100 0 0 0 0 0 0 0 255 255 0 255 255 0 0 0 0 0 0 0 0 0 0 0 0 0 255 255 0 0 0 0 0 100 0 0 100 0 0 100 0 0 0 0 0 0 0 0 0 0 0 100 0 255 255 0 0 0 0 0 0 0 0 0 0 0 0 0 0 0 0 0 0 0 0 0 0 0 0 0 0 0 0 0 0 0 0 0 0 255 255 0 255 255 0 255 255 0 0 0 0 0 0 0 0 0 0 0 0 0 0 0 0 0 100 0 
0 0 0 255 255 0 0 100 0 0 0 0 0 100 0 0 100 0 0 100 0 0 0 0 255 255 0 0 0 0 255 255 0 0 0 0 0 0 0 0 100 0 0 0 0 0 100 0 0 0 0 0 0 0 0 0 0 0 0 0 255 255 0 0 0 0 0 0 0 0 0 0 0 0 0 0 0 0 0 100 0 0 0 0 0 0 0 255 255 0 0 100 0 0 0 0 0 0 0 255 255 0 0 100 0 0 0 0 0 100 0 0 100 0 0 0 0 0 0 0 0 100 0 0 0 0 0 0 0 255 255 0 0 0 0 255 255 0 0 0 0 0 100 0 0 0 0 0 0 0 
0 0 0 0 0 0 0 100 0 0 100 0 255 255 0 0 0 0 0 0 0 0 0 0 0 100 0 0 100 0 0 0 0 0 0 0 0 0 0 0 0 0 0 0 0 0 100 0 0 0 0 0 0 0 0 0 0 0 0 0 0 100 0 0 0 0 255 255 0 0 0 0 255 255 0 0 100 0 0 100 0 255 255 0 0 100 0 0 0 0 0 100 0 0 100 0 0 100 0 0 100 0 0 100 0 0 100 0 0 0 0 0 0 0 0 0 0 0 0 0 0 0 0 0 0 0 0 0 0 0 0 0 0 100 0 0 100 0 0 100 0 0 100 0 0 0 0 0 0 0 
0 100 0 0 100 0 0 0 0 0 0 0 0 0 0 0 0 0 0 100 0 255 255 0 0 0 0 255 255 0 0 0 0 0 0 0 0 0 0 0 0 0 0 100 0 0 0 0 0 0 0 0 100 0 0 100 0 0 0 0 0 0 0 0 0 0 0 0 0 0 0 0 0 0 0 255 255 0 255 255 0 0 0 0 0 100 0 255 255 0 255 255 0 0 0 0 255 255 0 0 0 0 0 0 0 0 0 0 255 255 0 0 0 0 0 0 0 0 100 0 255 255 0 0 0 0 255 255 0 0 0 0 0 100 0 0 0 0 0 0 0 0 0 0 255 255 0 0 100 0 
0 0 0 0 0 0 255 255 0 0 100 0 0 0 0 0 100 0 0 0 0 0 0 0 0 0 0 0 0 0 0 0 0 0 0 0 0 0 0 0 0 0 0 0 0 0 0 0 0 100 0 0 0 0 0 100 0 0 100 0 0 0 0 0 100 0 0 0 0 0 0 0 0 0 0 255 255 0 255 255 0 255 255 0 0 0 0 0 0 0 0 100 0 0 0 0 0 0 0 0 0 0 0 0 0 0 0 0 0 100 0 0 0 0 0 0 0 0 100 0 0 100 0 0 100 0 0 0 0 0 0 0 0 100 0 0 100 0 0 0 0 0 0 0 255 255 0 255 255 0 
0 0 0 0 0 0 0 0 0 0 0 0 0 0 0 0 100 0 0 0 0 255 255 0 0 0 0 0 0 0 0 0 0 0 0 0 0 0 0 0 0 0 0 0 0 0 100 0 255 255 0 0 0 0 0 0 0 0 0 0 0 0 0 0 0 0 0 0 0 0 0 0 0 0 0 0 0 0 0 0 0 255 255 0 0 0 0 0 0 0 0 0 0 255 255 0 255 255 0 255 255 0 0 100 0 0 100 0 0 0 0 0 100 0 0 100 0 0 0 0 0 0 0 0 0 0 255 255 0 0 0 0 0 0 0 255 255 0 0 0 0 0 0 0 0 0 0 0 0 0 
0 0 0 255 255 0 0 100 0 0 100 0 0 0 0 0 100 0 0 0 0 0 100 0 0 0 0 0 0 0 0 0 0 0 0 0 0 0 0 0 100 0 0 100 0 0 100 0 0 0 0 0 0 0 0 0 0 0 100 0 0 0 0 0 0 0 0 0 0 0 0 0 0 0 0 0 100 0 0 0 0 0 0 0 255 255 0 255 255 0 0 100 0 0 0 0 0 0 0 0 100 0 0 0 0 0 100 0 255 255 0 255 255 0 0 0 0 0 0 0 255 255 0 0 100 0 255 255 0 0 100 0 0 100 0 0 100 0 0 100 0 0 100 0 0 100 0 0 0 0 
0 0 0 255 255 0 0 100 0 0 0 0 0 0 0 0 0 0 255 255 0 0 0 0 0 0 0 0 0 0 0 0 0 0 100 0 0 0 0 0 0 0 0 0 0 0 100 0 0 0 0 0 100 0 0 0 0 0 100 0 0 100 0 0 100 0 0 100 0 0 100 0 0 100 0 0 100 0 0 0 0 0 0 0 0 0 0 255 255 0 0 0 0 0 0 0 255 255 0 0 0 0 0 0 0 0 0 0 0 0 0 0 100 0 0 100 0 0 100 0 0 100 0 0 0 0 0 0 0 0 100 0 0 0 0 0 100 0 0 100 0 0 100 0 0 100 0 255 255 0 
255 255 0 0 0 0 0 100 0 0 0 0 0 100 0 0 100 0 0 0 0 0 0 0 0 0 0 0 100 0 0 0 0 0 100 0 0 0 0 0 0 0 0 100 0 0 100 0 0 0 0 0 0 0 0 0 0 0 0 0 0 100 0 0 0 0 0 0 0 255 255 0 0 0 0 0 0 0 0 0 0 0 0 0 0 0 0 0 0 0 255 255 0 255 255 0 0 100 0 0 100 0 0 100 0 0 100 0 0 100 0 0 100 0 0 100 0 0 0 0 0 0 0 0 0 0 0 0 0 0 0 0 0 0 0 0 0 0 0 0 0 0 100 0 0 0 0 0 100 0 
0 100 0 0 0 0 0 100 0 0 0 0 255 255 0 0 0 0 0 0 0 0 0 0 0 0 0 0 0 0 0 100 0 0 100 0 0 100 0 0 100 0 0 0 0 0 100 0 0 100 0 0 0 0 0 100 0 0 0 0 0 100 0 0 100 0 0 100 0 0 100 0 0 0 0 0 100 0 0 0 0 0 0 0 255 255 0 0 0 0 0 100 0 0 0 0 0 0 0 0 100 0 0 0 0 0 100 0 0 0 0 0 0 0 0 0 0 0 0 0 0 0 0 0 0 0 0 0 0 0 0 0 0 0 0 0 0 0 0 0 0 0 0 0 0 0 0 0 100 0 
0 0 0 0 0 0 0 100 0 0 0 0 0 0 0 0 0 0 0 0 0 0 0 0 0 0 0 0 0 0 0 0 0 0 0 0 0 100 0 0 100 0 0 100 0 0 0 0 0 0 0 0 0 0 255 255 0 0 100 0 0 100 0 0 0 0 0 100 0 0 0 0 0 100 0 0 0 0 0 100 0 0 0 0 0 0 0 0 0 0 0 0 0 0 0 0 0 0 0 0 0 0 0 0 0 0 100 0 0 0 0 0 0 0 0 0 0 0 100 0 0 100 0 0 0 0 0 0 0 0 0 0 0 100 0 0 0 0 0 0 0 0 100 0 0 0 0 0 0 0 
255 255 0 0 0 0 0 100 0 0 0 0 0 100 0 0 100 0 0 0 0 0 0 0 0 0 0 0 0 0 0 0 0 0 0 0 0 0 0 0 0 0 0 100 0 0 100 0 0 100 0 0 100 0 0 0 0 255 255 0 0 100 0 0 0 0 0 0 0 0 0 0 0 100 0 0 0 0 0 100 0 0 100 0 0 0 0 0 0 0 0 0 0 0 0 0 0 0 0 255 255 0 0 100 0 0 100 0 0 100 0 0 100 0 0 0 0 0 0 0 0 0 0 0 100 0 0 0 0 0 0 0 0 0 0 0 0 0 0 0 0 0 100 0 0 100 0 0 0 0 
255 255 0 0 0 0 0 0 0 0 0 0 0 100 0 0 100 0 255 255 0 255 255 0 0 0 0 0 0 0 0 0 0 0 0 0 255 255 0 255 255 0 0 0 0 0 0 0 0 0 0 0 0 0 0 0 0 0 0 0 0 100 0 255 255 0 0 100 0 255 255 0 0 0 0 255 255 0 0 0 0 0 0 0 0 100 0 0 100 0 0 100 0 0 100 0 0 0 0 0 0 0 0 0 0 0 0 0 0 0 0 0 0 0 0 0 0 0 0 0 0 0 0 0 0 0 0 0 0 0 100 0 0 100 0 0 0 0 0 0 0 0 0 0 0 100 0 0 0 0 
255 255 0 0 0 0 0 0 0 0 0 0 0 0 0 255 255 0 0 100 0 0 100 0 0 100 0 255 255 0 0 0 0 0 0 0 0 0 0 0 0 0 0 100 0 0 100 0 0 100 0 0 100 0 0 0 0 0 0 0 0 0 0 255 255 0 0 100 0 0 0 0 0 100 0 0 0 0 0 0 0 0 0 0 0 0 0 0 0 0 0 0 0 0 0 0 0 0 0 255 255 0 0 0 0 0 0 0 0 0 0 0 0 0 0 0 0 0 0 0 0 0 0 0 0 0 0 0 0 0 0 0 0 0 0 0 0 0 0 100 0 0 100 0 0 100 0 0 100 0 
0 100 0 0 0 0 0 100 0 0 0 0 0 100 0 0 100 0 0 0 0 0 0 0 0 0 0 255 255 0 0 100 0 0 100 0 0 100 0 0 0 0 0 0 0 0 0 0 0 0 0 0 0 0 0 0 0 255 255 0 0 0 0 255 255 0 0 100 0 0 100 0 255 255 0 0 100 0 0 100 0 0 0 0 0 0 0 0 0 0 0 0 0 0 100 0 0 0 0 255 255 0 0 100 0 0 100 0 0 0 0 0 0 0 0 100 0 0 100 0 0 0 0 0 0 0 0 0 0 0 100 0 0 0 0 0 0 0 0 100 0 0 0 0 0 0 0 0 100 0 
0 100 0 0 0 0 0 0 0 0 0 0 0 0 0 255 255 0 0 0 0 0 0 0 0 100 0 0 100 0 0 100 0 0 0 0 0 0 0 0 0 0 255 255 0 0 100 0 0 100 0 0 0 0 255 255 0 0 0 0 0 0 0 0 0 0 0 0 0 0 0 0 0 0 0 0 0 0 0 100 0 0 0 0 0 100 0 255 255 0 0 0 0 0 0 0 0 0 0 0 0 0 0 0 0 0 0 0 0 0 0 0 0 0 0 0 0 0 0 0 0 0 0 0 0 0 0 0 0 0 0 0 0 100 0 0 0 0 0 100 0 0 0 0 0 0 0 0 100 0 
0 100 0 0 0 0 0 100 0 255 255 0 0 0 0 0 0 0 0 0 0 0 0 0 255 255 0 255 255 0 0 100 0 255 255 0 255 255 0 0 0 0 255 255 0 0 100 0 0 0 0 0 0 0 0 0 0 0 100 0 255 255 0 0 0 0 255 255 0 0 0 0 0 0 0 255 255 0 0 100 0 0 0 0 0 0 0 0 0 0 0 100 0 0 100 0 0 0 0 0 0 0 0 0 0 0 0 0 0 0 0 0 100 0 0 100 0 0 0 0 0 100 0 0 0 0 0 100 0 0 0 0 0 0 0 0 0 0 0 0 0 0 0 0 0 0 0 0 100 0 
0 100 0 0 0 0 0 100 0 0 0 0 0 100 0 0 0 0 0 100 0 0 0 0 0 0 0 0 0 0 0 0 0 0 0 0 255 255 0 0 0 0 0 0 0 0 100 0 255 255 0 0 0 0 0 0 0 0 0 0 255 255 0 0 0 0 0 100 0 0 0 0 0 0 0 0 0 0 0 0 0 255 255 0 255 255 0 0 0 0 255 255 0 0 0 0 255 255 0 0 0 0 255 255 0 0 0 0 0 0 0 0 0 0 255 255 0 255 255 0 0 0 0 0 0 0 0 0 0 0 0 0 0 0 0 0 100 0 0 100 0 0 0 0 0 0 0 0 100 0 
0 100 0 0 0 0 0 100 0 0 0 0 255 255 0 0 0 0 0 100 0 0 100 0 0 0 0 0 0 0 255 255 0 255 255 0 0 100 0 0 100 0 255 255 0 0 100 0 0 0 0 0 0 0 0 100 0 0 0 0 255 255 0 0 0 0 0 0 0 0 0 0 0 0 0 0 0 0 0 0 0 0 0 0 0 100 0 0 0 0 0 0 0 0 0 0 255 255 0 255 255 0 0 100 0 0 0 0 0 100 0 0 100 0 0 0 0 0 0 0 0 0 0 0 0 0 0 0 0 0 0 0 0 0 0 0 0 0 0 0 0 0 0 0 0 0 0 0 100 0 
0 100 0 0 0 0 0 100 0 0 0 0 255 255 0 0 0 0 0 100 0 0 0 0 0 0 0 0 0 0 0 100 0 0 100 0 0 0 0 255 255 0 255 255 0 0 0 0 255 255 0 0 0 0 0 100 0 0 100 0 0 0 0 0 0 0 0 0 0 0 0 0 0 0 0 0 0 0 0 0 0 0 0 0 0 0 0 0 0 0 0 100 0 0 0 0 0 0 0 0 0 0 0 0 0 0 0 0 0 100 0 0 100 0 0 100 0 0 0 0 0 100 0 0 100 0 0 100 0 0 0 0 255 255 0 0 100 0 0 0 0 0 0 0 0 0 0 0 100 0 
255 255 0 0 100 0 0 0 0 0 0 0 255 255 0 0 0 0 0 0 0 255 255 0 0 0 0 0 0 0 255 255 0 0 100 0 0 0 0 0 0 0 0 0 0 0 100 0 255 255 0 255 255 0 0 0 0 0 0 0 0 100 0 0 100 0 255 255 0 0 0 0 0 100 0 255 255 0 0 100 0 0 100 0 0 0 0 0 0 0 0 0 0 0 0 0 0 0 0 0 0 0 0 100 0 0 100 0 0 100 0 0 0 0 0 0 0 0 0 0 0 0 0 0 0 0 0 0 0 0 0 0 0 0 0 0 0 0 0 0 0 0 0 0 0 100 0 0 100 0 
255 255 0 0 100 0 0 0 0 255 255 0 0 0 0 0 0 0 0 0 0 0 100 0 0 0 0 0 0 0 0 0 0 0 0 0 0 100 0 0 100 0 0 0 0 255 255 0 0 0 0 0 100 0 0 0 0 0 0 0 255 255 0 0 100 0 0 100 0 0 0 0 0 100 0 0 0 0 0 0 0 0 100 0 0 100 0 0 0 0 0 0 0 0 0 0 0 0 0 0 100 0 0 100 0 0 0 0 0 0 0 0 0 0 0 0 0 0 0 0 0 0 0 0 0 0 0 0 0 0 0 0 0 0 0 0 0 0 0 0 0 0 0 0 0 0 0 0 0 0 
0 0 0 0 0 0 0 0 0 0 0 0 0 0 0 0 100 0 0 0 0 255 255 0 0 100 0 0 0 0 0 0 0 0 0 0 255 255 0 255 255 0 255 255 0 0 0 0 0 0 0 0 0 0 0 100 0 0 0 0 0 0 0 0 0 0 0 100 0 0 0 0 0 100 0 0 0 0 0 100 0 0 0 0 0 0 0 0 100 0 0 0 0 0 0 0 0 0 0 0 0 0 0 0 0 0 0 0 0 0 0 0 100 0 0 0 0 0 0 0 0 0 0 0 0 0 0 0 0 0 0 0 0 0 0 0 0 0 0 0 0 0 0 0 0 0 0 0 0 0 
0 100 0 0 0 0 0 100 0 0 100 0 0 100 0 0 0 0 0 100 0 0 100 0 0 100 0 0 0 0 0 100 0 0 100 0 0 100 0 0 0 0 255 255 0 0 100 0 0 0 0 0 100 0 0 100 0 0 0 0 0 0 0 255 255 0 0 0 0 255 255 0 0 100 0 0 0 0 255 255 0 0 0 0 0 0 0 0 100 0 0 0 0 0 0 0 0 0 0 0 0 0 0 0 0 0 0 0 0 0 0 0 100 0 0 0 0 0 0 0 0 0 0 0 100 0 0 100 0 0 0 0 0 0 0 0 0 0 0 100 0 0 0 0 0 100 0 0 100 0 
255 255 0 0 0 0 0 100 0 0 0 0 0 100 0 255 255 0 0 0 0 0 0 0 0 100 0 0 0 0 0 0 0 0 0 0 0 0 0 0 100 0 0 100 0 0 100 0 0 0 0 0 100 0 0 100 0 0 0 0 0 100 0 0 100 0 0 100 0 0 0 0 0 0 0 255 255 0 0 0 0 0 0 0 0 0 0 255 255 0 255 255 0 0 100 0 0 100 0 0 0 0 0 0 0 0 0 0 0 100 0 0 100 0 0 0 0 0 100 0 0 0 0 0 0 0 0 0 0 0 0 0 0 0 0 0 0 0 0 0 0 0 0 0 0 0 0 0 0 0 
0 100 0 0 0 0 0 100 0 0 100 0 0 0 0 0 0 0 0 0 0 0 0 0 0 0 0 255 255 0 0 100 0 0 0 0 0 0 0 255 255 0 0 0 0 0 0 0 0 0 0 0 0 0 255 255 0 0 100 0 0 0 0 255 255 0 0 100 0 0 0 0 0 0 0 0 0 0 0 0 0 0 100 0 0 0 0 0 0 0 255 255 0 0 100 0 0 100 0 0 0 0 0 100 0 0 0 0 0 0 0 0 0 0 0 0 0 0 0 0 0 0 0 0 0 0 0 0 0 0 0 0 0 0 0 0 0 0 0 0 0 0 0 0 0 0 0 0 0 0 
0 100 0 0 0 0 0 0 0 0 0 0 0 0 0 0 0 0 0 100 0 0 100 0 0 0 0 0 100 0 0 100 0 255 255 0 0 0 0 0 0 0 0 100 0 255 255 0 0 0 0 0 0 0 0 100 0 0 100 0 0 100 0 0 100 0 255 255 0 0 0 0 0 0 0 0 0 0 0 0 0 255 255 0 0 0 0 0 0 0 0 0 0 255 255 0 255 255 0 0 100 0 0 0 0 0 100 0 0 0 0 0 0 0 0 0 0 0 0 0 0 100 0 0 0 0 0 0 0 0 0 0 0 0 0 0 0 0 0 0 0 0 0 0 0 0 0 0 0 0 
0 100 0 0 0 0 0 0 0 0 0 0 0 100 0 255 255 0 0 0 0 255 255 0 255 255 0 0 100 0 255 255 0 255 255 0 0 0 0 0 0 0 0 100 0 255 255 0 0 0 0 0 0 0 0 100 0 0 0 0 255 255 0 0 0 0 0 0 0 0 100 0 255 255 0 0 0 0 0 0 0 255 255 0 0 0 0 0 0 0 0 0 0 0 0 0 0 100 0 0 0 0 0 0 0 0 100 0 0 0 0 0 0 0 0 0 0 0 100 0 0 0 0 0 0 0 0 0 0 0 100 0 0 0 0 0 100 0 0 100 0 0 0 0 0 100 0 0 0 0 
0 0 0 0 0 0 0 0 0 0 0 0 0 0 0 0 0 0 0 100 0 0 0 0 0 100 0 0 100 0 0 100 0 0 100 0 0 100 0 0 100 0 0 0 0 255 255 0 0 0 0 0 100 0 255 255 0 0 0 0 0 0 0 0 0 0 0 0 0 0 0 0 0 100 0 0 0 0 0 100 0 0 100 0 0 0 0 0 0 0 0 0 0 0 100 0 0 100 0 0 0 0 0 100 0 0 0 0 0 0 0 0 0 0 0 0 0 0 0 0 0 0 0 0 0 0 0 0 0 0 0 0 0 0 0 0 0 0 0 100 0 0 0 0 0 0 0 0 0 0 
0 0 0 0 0 0 0 0 0 0 0 0 0 0 0 0 0 0 0 0 0 0 0 0 0 0 0 0 0 0 0 0 0 0 0 0 0 0 0 255 255 0 255 255 0 255 255 0 0 0 0 0 100 0 0 100 0 0 0 0 0 0 0 255 255 0 0 0 0 0 0 0 0 100 0 0 0 0 0 0 0 0 0 0 0 0 0 0 0 0 0 0 0 0 0 0 0 100 0 0 100 0 0 100 0 0 0 0 0 0 0 0 0 0 0 100 0 0 100 0 0 0 0 0 0 0 0 0 0 0 0 0 0 0 0 0 0 0 0 0 0 0 0 0 0 0 0 0 0 0 
