P3
4 3
255
255 255 25     2 1 55     16 12 4   16 12 4 
68 61 29    82 73 37    83 1 43     82 73 37 
72 69 31    63 54 21     37 55 13    72 69 31