P3
8 8
255
128 0 0 75 0 0 72 0 0 105 0 0 149 0 0 169 0 0 127 0 0 100 0 0
122 0 0 84 0 0 83 0 0 84 0 0 146 0 0 138 0 0 142 0 0 139 0 0
118 0 0 98 0 0 89 0 0 94 0 0 136 0 0 96 0 0 143 0 0 188 0 0
122 0 0 106 0 0 79 0 0 115 0 0 148 0 0 102 0 0 127 0 0 167 0 0
127 0 0 115 0 0 106 0 0 94 0 0 155 0 0 124 0 0 103 0 0 155 0 0
125 0 0 115 0 0 130 0 0 140 0 0 170 0 0 174 0 0 115 0 0 136 0 0
127 0 0  110 0 0 122 0 0 163 0 0 175 0 0 140 0 0 119 0 0 87 0 0
146 0 0 114 0 0 127 0 0 140 0 0 131 0 0 142 0 0 153 0 0 93 0 0
